<svg class="svg-icon" style="width: 1em;height: 1em;vertical-align: middle;fill: currentColor;overflow: hidden;" viewBox="0 0 1024 1024" version="1.1" xmlns="http://www.w3.org/2000/svg"><path d="M97.8944 119.808c2.4576-20.992 18.944-37.5808 39.8848-40.2944 103.5264-13.312 407.0912-36.0448 501.5552 138.5984 30.8224 54.8864 43.264 159.1808 21.6576 235.6224-3.9424 13.7216-5.888 29.3888 18.6368 31.3856 24.5248 1.9456 129.4336 0 129.4336 0l-306.8928 314.7264s0-126.464-1.9456-146.0736c-1.9456-19.6096-6.8608-28.416-31.3856-21.5552-24.5248 6.8608-201.0112 50.9952-297.0624-78.4384-86.7328-116.8384-87.7056-316.416-73.8816-433.9712z" fill="#F39800" /><path d="M812.1344 394.6496L684.032 316.4672c-4.9152-40.0384-15.5136-77.7216-31.1808-105.6768C555.6224 30.976 258.8672 48.4352 135.8336 64.3072c-28.0064 3.6352-49.92 25.7024-53.1968 53.7088-8.1408 69.12-26.6752 305.5104 76.8 444.8768 48.128 64.8192 115.3536 88.6784 175.4112 95.0784 0.4608 1.28 1.024 2.5088 1.8432 3.6864l93.5936 132.1472c7.8336 11.0592 20.4288 16.9984 33.1776 16.9984 7.8336 0 15.7696-2.2528 22.6816-6.9632l1.0752-0.768c1.0752 4.864 4.4032 9.0112 9.1648 10.9568 1.8944 0.768 3.84 1.1264 5.7856 1.1264 4.0448 0 8.0384-1.6384 11.008-4.6592l306.8928-314.7264c4.352-4.4544 5.5808-11.1104 3.1232-16.8448-1.2288-2.8672-3.328-5.2224-5.8368-6.8608l11.264-27.7504c7.424-18.3296 0.512-39.2704-16.4864-49.664z m-16.0256 26.2656c4.096 2.5088 5.7344 7.5264 3.9424 11.9808l-15.104 37.2736c-32.256 0.4608-87.7056 0.9728-104.1408-0.3072-4.1984-0.3584-6.144-1.1264-6.8096-1.4848-0.1536-0.9728-0.2048-3.6864 1.7408-10.4448 8.7552-31.1296 12.288-67.4304 11.1104-103.68l109.2608 66.6624zM184.1152 544.6144c-76.8512-103.5264-87.04-286.3616-70.9632-422.9632a30.61248 30.61248 0 0 1 26.624-26.8288c88.32-11.3664 376.7808-35.4304 477.1328 115.8144h-91.8528a15.4112 15.4112 0 0 0-15.36 14.6944l-5.6832 126.5152h-116.224c-8.4992 0-15.36 6.8608-15.36 15.36V486.4H251.8528c-8.4992 0-15.36 6.8608-15.36 15.36v91.7504a196.54656 196.54656 0 0 1-52.3776-48.896z m284.672 233.8304c-4.352 2.9696-10.3936 1.8944-13.4656-2.4064l-82.2784-116.1728c50.7904-0.1024 90.7776-10.3424 99.8912-12.9024 5.7856-1.6384 8.7552-1.792 10.1376-1.7408 0.4608 1.2288 1.2288 4.0448 1.8432 10.0352 1.1776 11.7248 1.6384 68.864 1.792 110.9504l-17.92 12.2368z m48.64-16.2816c-0.1536-39.2192-0.6144-96.7168-1.9456-109.9264-1.28-12.544-3.9424-25.1392-14.7968-32.5632-5.5808-3.84-11.9296-5.12-18.0736-5.12-6.5024 0-12.8 1.4336-17.92 2.8672-14.1824 3.9424-111.3088 28.7744-197.4784-7.7312V517.12h120.576c8.4992 0 15.36-6.8608 15.36-15.36V382.464h115.5584c8.192 0 14.9504-6.4512 15.36-14.6944l5.6832-126.5152h93.7984c24.3712 56.576 30.4128 145.4592 12.6976 208.1792-1.9968 6.9632-6.656 23.2448 2.5088 36.4032 5.9392 8.5504 15.9232 13.4144 29.696 14.4896 15.5136 1.2288 60.7232 1.024 93.6448 0.6144l-254.6688 261.2224zM655.1552 963.6864a15.32928 15.32928 0 0 1-15.2576-17.1008c9.4208-82.4832-33.6896-183.552-34.1504-184.576-3.3792-7.7824 0.2048-16.8448 8.0384-20.1728a15.3088 15.3088 0 0 1 20.1728 8.0384c1.8944 4.4544 46.7968 109.7216 36.4544 200.2432a15.4112 15.4112 0 0 1-15.2576 13.568zM803.1744 963.6864c-8.4992 0-15.36-6.8608-15.36-15.36 0-150.3744-92.4672-263.5776-93.44-264.704a15.34464 15.34464 0 0 1 1.9968-21.6064 15.29856 15.29856 0 0 1 21.6064 1.9968c4.096 4.9152 100.5056 122.5728 100.5056 284.3648 0.0512 8.3968-6.8608 15.3088-15.3088 15.3088zM939.4176 963.6864c-8.3456 0-15.1552-6.656-15.36-15.0528-4.5056-213.248-165.1712-326.8608-166.8096-327.9872a15.36 15.36 0 0 1-3.8912-21.3504 15.36 15.36 0 0 1 21.3504-3.9424c7.168 4.9152 175.2064 123.2384 180.0704 352.6144a15.3088 15.3088 0 0 1-15.0528 15.6672c-0.0512 0.0512-0.2048 0.0512-0.3072 0.0512z" fill="#333B44" /></svg>