<svg class="svg-icon" style="width: 1em;height: 1em;vertical-align: middle;fill: currentColor;overflow: hidden;" viewBox="0 0 1024 1024" version="1.1" xmlns="http://www.w3.org/2000/svg"><path d="M517.0688 216.9856s-118.4768-48.2304-180.6848 36.8128c-46.9504 58.368-58.368 69.7856-82.4832 86.272-24.1152 16.4864-82.4832 147.2-30.464 218.2656-19.0464 60.928 8.9088 107.8784 38.0928 118.016 0 49.5104 11.4176 102.8096 73.6256 115.5072 27.904 59.648 65.9968 60.928 101.5296 60.928 0 0 29.1328 31.3856 80.384 31.3856s84.0704-31.3856 84.0704-31.3856c35.5328 0 73.6256-1.28 101.5296-60.928 62.208-12.6976 73.6256-65.9968 73.6256-115.5072 29.184-10.1376 57.088-57.088 38.0928-118.016 52.0192-71.0656-6.3488-201.7792-30.464-218.2656-24.1152-16.4864-35.5328-27.904-82.4832-86.272-62.208-85.0432-180.6848-36.8128-180.6848-36.8128" fill="#E58339" /><path d="M500.1216 266.4448S444.2624 342.5792 393.5232 373.0432 304.6912 433.9712 341.504 497.408s43.1616 93.9008 41.8816 128.1536c-1.28 34.2528 19.0464 85.0432 43.1616 104.0384 24.1152 19.0464 32.6656 54.5792 90.5728 54.5792s68.096-40.6016 82.0224-52.0192c13.9776-11.4176 54.4768-36.8128 51.9168-120.576s39.3216-92.6208 48.2304-133.2736c8.9088-40.6016 2.6624-68.5056-68.4032-114.2272s-93.9008-97.7408-93.9008-97.7408h-36.864z" fill="#F2B655" /><path d="M517.0688 799.5904c-49.3568 0-69.0176-23.2448-84.8384-41.9328-5.12-6.0416-9.9328-11.7248-15.2576-15.9232-27.5968-21.76-50.4832-76.288-48.9984-116.6848 1.1776-31.232-4.864-59.5968-39.8336-119.9104-47.6672-82.176 18.1248-121.6512 57.3952-145.2544 47.5648-28.5184 101.5808-101.7856 102.144-102.5024 2.8672-3.9424 7.4752-6.2976 12.3904-6.2976h36.8128c6.0928 0 11.6224 3.584 14.08 9.1648 0.2048 0.4096 22.3744 48.6912 88.1664 90.9824 76.3904 49.1008 85.3504 83.712 75.1104 130.4064-3.8912 17.8176-12.8512 30.3104-21.504 42.3936-13.6704 19.1488-27.8528 38.912-26.368 87.1424 2.6112 85.7088-37.4272 117.0944-54.528 130.5088-1.1264 0.8704-2.0992 1.6384-3.0208 2.4064-1.7408 1.4336-4.608 5.4784-7.3728 9.3696-12.1344 17.2544-32.512 46.1312-84.3776 46.1312zM507.7504 281.8048c-14.848 19.3536-61.696 77.6192-106.3424 104.3968-54.7328 32.8192-74.4448 55.552-46.6432 103.4752 38.7072 66.7648 45.312 99.4304 43.9296 136.448-1.1264 29.8496 17.7152 75.9808 37.3248 91.4432 7.7312 6.0928 13.824 13.2608 19.6608 20.224 14.08 16.64 26.2656 31.0784 61.3888 31.0784 35.9424 0 48.3328-17.5616 59.2896-33.0752 4.1472-5.8368 8.0384-11.3664 13.0048-15.4624 1.024-0.8704 2.2016-1.792 3.5328-2.7648 14.592-11.4176 44.9024-35.2256 42.8032-105.4208-1.792-58.5728 16.9984-84.8384 32.1024-105.9328 7.7824-10.8544 13.9264-19.456 16.4352-31.0784 6.9632-31.8464 6.2976-54.3232-61.696-97.9968-57.0368-36.6592-84.736-77.4144-94.9248-95.2832h-19.8656z" fill="#333B44" /><path d="M389.7856 439.3984c13.1072-7.8848 63.232-33.8432 91.648 9.1648 0.768 1.1264 0.7168 2.7136-0.1536 3.7888-22.6816 28.8256-66.2016 20.0704-92.2624-8.0896a3.18464 3.18464 0 0 1 0.768-4.864zM640.3072 439.3984c-13.1072-7.8848-63.232-33.8432-91.648 9.1648-0.768 1.1264-0.7168 2.7136 0.1536 3.7888 22.6816 28.8256 66.2016 20.0704 92.2624-8.0896 1.3312-1.4848 0.9728-3.84-0.768-4.864zM449.2288 641.792c-4.4544-4.5568-3.4816-12.1344 2.0992-15.3088 10.5472-5.9392 30.6688-13.2608 65.792-13.2608 35.328 0 56.1664 7.424 67.2256 13.3632 5.7344 3.072 6.8096 10.8032 2.2528 15.4624l-54.528 54.784c-3.7888 3.7888-3.7888 9.9328 0 13.7216l6.2976 6.3488c6.0928 6.144 1.7408 16.5888-6.912 16.5888H501.76c-9.0112 0-13.2096-11.1616-6.4-17.1008l6.8096-5.9392a9.728 9.728 0 0 0 0.5632-14.1824l-53.504-54.4768z" fill="#333B44" /><path d="M517.0688 899.5328c-45.0048 0-75.008-21.4528-86.4768-31.4368-33.024-0.2048-75.4176-3.6864-106.0352-62.976-70.4-18.688-77.568-85.76-78.2848-118.8864-32.512-18.3808-54.7328-67.2256-39.5264-125.2352-1.9968-3.1744-3.84-6.4512-5.4784-9.7792a15.31904 15.31904 0 0 1 6.912-20.5824c7.5776-3.7888 16.7936-0.7168 20.5824 6.912 2.0992 4.1472 4.5056 8.1408 7.168 11.7248 2.8672 3.9424 3.7376 9.0112 2.2528 13.6704-16.1792 51.712 6.5536 91.3408 28.4672 98.9184 6.1952 2.1504 10.2912 7.9872 10.2912 14.4896 0 60.8256 18.8928 91.8016 61.3376 100.4544 4.7616 0.9728 8.7552 4.1472 10.8544 8.5504 24.3712 52.0704 55.0912 52.0704 87.6032 52.0704 4.2496 0 8.3456 1.792 11.264 4.9152 0.9728 1.024 25.7024 26.5216 69.1712 26.5216 44.5952 0 73.1648-26.88 73.472-27.136 2.8672-2.7648 6.656-4.2496 10.5984-4.2496 32.512 0 63.232 0 87.6032-52.0704 2.048-4.4032 6.0928-7.5776 10.8544-8.5504 42.3936-8.6528 61.3376-39.6288 61.3376-100.4544 0-6.5536 4.1472-12.3392 10.2912-14.4896 21.8624-7.6288 44.5952-47.2064 28.4672-98.9184-1.4336-4.6592-0.6144-9.728 2.2528-13.6704 21.1968-28.928 19.8656-68.9152 14.9504-97.3312-8.9088-51.968-33.5872-93.6448-41.728-99.2256-26.3168-18.0224-39.168-31.3856-85.76-89.344-0.1536-0.2048-0.3072-0.3584-0.4096-0.5632-54.4768-74.4448-161.3824-32.0512-162.4576-31.6416-7.8336 3.2256-16.8448-0.5632-20.0192-8.448-3.2256-7.8336 0.5632-16.8448 8.448-20.0192 44.7488-18.2272 143.8208-32.9216 198.656 41.6768 46.848 58.4192 56.832 67.8912 78.848 82.944 18.3296 12.544 45.2608 64.6656 54.6304 119.3984 7.8336 45.7216 2.2528 84.992-16.128 114.2272 15.2064 58.0096-7.0144 106.8544-39.5264 125.2352-0.7168 33.1264-7.936 100.1984-78.2848 118.8864-30.72 59.5456-73.3696 62.7712-106.4448 62.976-11.9296 9.5232-44.288 31.4368-89.7536 31.4368z" fill="#333B44" /><path d="M441.9072 226.4064S384.1024 319.744 316.16 331.264C240.0256 276.0192 203.776 267.4176 150.4768 362.5984c-7.6288 16.1792-16.9472 69.5808 20.9408 69.4784s39.9872-72.3456 5.7344-123.7504c-31.1808-46.7968-69.5296-73.8816-116.3776-78.336-3.072-0.3072-3.6352-4.5568-0.7168-5.632 35.7376-13.312 97.9456-30.72 186.5728 62.1056 59.9552 67.584 59.9552 240.4864-48.5376 257.3312C89.6 560.5888 48.64 465.408 46.7456 373.0432c-1.8944-92.3136 80.896-221.7472 202.752-216.9856S423.8336 207.36 441.9072 226.4064z" fill="#FFBE88" /><path d="M522.8544 202.752c-1.792-0.7168-44.3904-17.8176-93.4912-14.2848-2.304 0.1536-4.4032 0.8704-6.2464 1.8944-34.9184-24.2176-89.3952-46.3872-173.0048-49.664-51.968-1.8944-101.0688 17.9712-141.9776 57.8048-19.8656 0.6656-37.6832 5.5296-53.4528 11.4688a18.23744 18.23744 0 0 0-11.7248 19.5584 18.14016 18.14016 0 0 0 16.384 15.7696c3.4304 0.3072 6.8608 0.8192 10.1888 1.3824-24.7296 39.68-39.0144 85.4016-38.144 126.6688 1.4336 69.888 23.7056 127.9488 61.0816 159.2832 22.528 18.8928 49.7664 28.416 81.2032 28.416 8.6016 0 17.5616-0.7168 26.7776-2.1504 42.1888-6.5536 74.3424-34.816 90.4704-79.616 16.128-44.8512 14.2336-101.9904-2.0992-148.5312 5.5808 3.7376 11.6736 8.0384 18.3808 12.8512 3.328 2.4064 7.5264 3.4304 11.5712 2.7136C392.704 333.824 452.5056 238.4896 455.0144 234.4448c2.9184-4.7616 2.9696-10.5472 0.4608-15.3088 31.232 2.2528 55.552 11.8784 55.8592 12.032a15.40096 15.40096 0 0 0 20.0192-8.448c3.1744-7.8336-0.6144-16.7936-8.4992-19.968zM261.9904 468.8896c-8.6016 23.8592-27.0848 53.6064-66.2528 59.648-33.792 5.2224-61.9008-1.28-83.5072-19.456-30.5664-25.6512-48.8448-75.3664-50.1248-136.3968-0.768-37.2224 13.6704-80.128 37.7344-116.2752 23.3984 11.264 44.288 30.6176 63.232 58.4704-8.3456 10.7008-16.896 23.9104-26.0096 40.1408-0.2048 0.3072-0.3584 0.6144-0.512 0.9728-6.2464 13.2608-14.9504 50.1248-0.256 73.216 7.4752 11.7248 19.9168 18.176 35.0208 18.176h0.1024c15.872-0.0512 28.9792-8.2944 36.9664-23.1936 16.3328-30.6176 8.3968-84.0704-18.4832-124.416-20.6848-31.0784-44.4928-53.8112-71.0656-68.0448 0.7168-0.768 1.3824-1.5872 2.0992-2.3552 29.4912 2.7136 67.6352 18.5856 114.3808 67.4304 34.1504 38.7584 46.3872 117.4528 26.6752 172.0832z m-97.792-99.328c5.0688-9.0112 9.8816-16.9472 14.5408-23.8592 9.1136 25.6 9.5744 50.9952 2.56 64.1024-3.2768 6.144-7.0656 6.7584-9.984 6.9632-6.6048 0-8.2432-2.56-9.1136-3.9424-6.2976-10.0352-2.304-33.6896 1.9968-43.264z m155.4432-54.7328c-23.296-16.5888-39.936-26.4704-54.9376-32.5632-0.7168-0.3072-1.4336-0.512-2.1504-0.7168-1.4336-1.8432-2.9184-3.584-4.4544-5.3248-0.1024-0.1536-0.256-0.256-0.3584-0.4096-40.6016-42.496-76.544-63.6416-108.2368-72.3456 24.2688-18.0736 57.6-33.6896 99.3792-32.1024 74.1376 2.9184 134.9632 23.04 173.1072 57.088C406.1696 250.88 365.0048 303.36 319.6416 314.8288z" fill="#333B44" /><path d="M594.5856 226.4064s57.8048 93.3376 125.7472 104.8576c76.1344-55.1936 112.384-63.8464 165.6832 31.3344 7.6288 16.1792 16.9472 69.5808-20.9408 69.4784-37.888-0.1024-39.9872-72.3456-5.7344-123.7504 31.1808-46.7968 69.5296-73.8816 116.3776-78.336 3.072-0.3072 3.6352-4.5568 0.7168-5.632-35.7376-13.312-97.9456-30.72-186.5728 62.1056-59.9552 67.584-59.9552 240.4864 48.5376 257.3312 108.4928 16.7936 149.4528-78.3872 151.3472-170.7008s-80.896-221.7472-202.752-216.9856-174.336 51.2512-192.4096 70.2976z" fill="#FFBE88" /><path d="M862.8736 561.1008c-8.6016 0-17.5616-0.7168-26.7776-2.1504-42.1888-6.5536-74.3424-34.816-90.4704-79.616-16.128-44.8512-14.2336-101.9904 2.0992-148.5312-5.5808 3.7376-11.6736 8.0384-18.3808 12.8512-3.328 2.4064-7.5264 3.4304-11.5712 2.7136-73.9328-12.4928-133.7344-107.8272-136.2432-111.872-3.6864-5.9392-2.8672-13.6192 1.9456-18.688 30.2592-31.8464 90.0096-70.7072 202.9568-75.1104 52.0704-1.9456 101.0688 17.9712 141.9776 57.8048 19.8656 0.6656 37.632 5.5296 53.4528 11.4176 8.0384 3.0208 12.8512 11.0592 11.7248 19.5584a18.14016 18.14016 0 0 1-16.384 15.7696c-3.4304 0.3072-6.8608 0.8192-10.1888 1.3824 24.7296 39.68 39.0144 85.4016 38.144 126.72-1.4336 69.888-23.7056 127.9488-61.0816 159.2832-22.528 18.944-49.7664 28.4672-81.2032 28.4672z m-61.6448-264.2432c-34.1504 38.7072-46.3872 117.4016-26.6752 172.0832 8.6016 23.8592 27.0848 53.6064 66.2528 59.648 33.792 5.2224 61.9008-1.28 83.5072-19.456 30.5664-25.6512 48.8448-75.3664 50.1248-136.3968 0.768-37.2224-13.6704-80.128-37.7856-116.2752-23.3984 11.264-44.288 30.6176-63.232 58.4704 8.3968 10.752 16.896 23.9104 26.0096 40.1408 0.1536 0.3072 0.3584 0.6656 0.512 0.9728 6.2464 13.2608 14.9504 50.1248 0.256 73.216-7.4752 11.7248-19.9168 18.176-35.0208 18.176h-0.1024c-15.872-0.0512-28.9792-8.2944-36.9664-23.1936-16.3328-30.6176-8.3968-84.1216 18.4832-124.416 20.6848-31.0784 44.4928-53.8112 71.0656-68.0448-0.7168-0.768-1.3824-1.5872-2.0992-2.3552-29.44 2.6624-67.6352 18.5856-114.3296 67.4304z m56.5248 48.8448c-9.1136 25.6-9.5232 50.9952-2.56 64.1024 3.2768 6.0928 6.8608 6.9632 9.9328 6.9632h0.0512c6.6048 0 8.2432-2.56 9.1136-3.9424 6.3488-9.984 2.3552-33.6384-1.9456-43.2128-5.0688-9.0624-9.8816-16.9984-14.592-23.9104z m-243.2512-117.248c15.8208 22.3744 56.9856 74.8544 102.3488 86.3232 23.296-16.5888 39.936-26.4704 54.9376-32.5632 0.7168-0.3072 1.4336-0.512 2.1504-0.7168 1.4336-1.8432 2.9184-3.584 4.4544-5.3248 0.1024-0.1536 0.256-0.256 0.3584-0.4096 40.5504-42.496 76.544-63.6416 108.2368-72.3456-24.2688-18.0736-57.6-33.7408-99.3792-32.1024-74.0864 2.9696-134.912 23.1424-173.1072 57.1392z" fill="#333B44" /></svg>