<svg class="svg-icon" style="width: 1em;height: 1em;vertical-align: middle;fill: currentColor;overflow: hidden;" viewBox="0 0 1024 1024" version="1.1" xmlns="http://www.w3.org/2000/svg"><path d="M297.1648 474.624c-22.7328-14.5408-46.1312-38.2464-39.7312-72.4992 9.0624-48.3328 41.9328-37.5808 77.4656-59.904s83.8144-41.1136 78.7456-155.0848c-38.0928 39.936-85.0944 89.2928-116.8384 56.3712-31.744-32.8704 8.9088-117.504 151.1424-112.7936-43.1616-31.744-274.3296-102.1952-339.0976 115.1488-15.0528 72.96-7.8848 211.456 154.88 264.5504 8.2944-12.7488 19.8656-24.6784 33.4336-35.7888zM917.2992 245.8624c-64.768-217.344-295.936-146.8416-339.0976-115.1488 142.2336-4.7104 182.8864 79.872 151.1424 112.7936-31.744 32.8704-78.7456-16.4352-116.8384-56.3712-5.0688 113.9712 43.1616 132.7616 78.7456 155.0848s68.4032 11.6224 77.4656 59.904c5.9392 31.744-13.7728 54.4768-34.816 69.2224 13.056 11.3664 24.2688 23.9104 32.6656 37.7344 158.72-54.1184 165.632-190.8736 150.7328-263.2192z" fill="#F98E23" /><path d="M661.8624 425.8816c-4.7616 15.7184-20.3776 27.2896-38.912 27.2896-22.3232 0-40.448-16.7424-40.448-37.4272 0-6.8096 1.9968-13.1584 5.4272-18.688-30.2592-9.6256-55.552-15.4624-67.7888-18.0224a33.09056 33.09056 0 0 0-15.6672 0.512c-11.9808 3.328-36.8128 10.6496-66.4576 21.504 2.0992 4.5056 3.2256 9.472 3.2256 14.6944 0 20.6848-18.1248 37.4272-40.448 37.4272-15.872 0-29.5424-8.448-36.1984-20.736-59.648 29.9008-114.7392 71.0656-114.7904 121.2416-0.1024 133.5808 203.776 208.7424 252.16 224.7168 6.6048 2.2016 13.7728 2.2016 20.3776 0.0512 49.2544-15.8208 260.4544-90.88 260.4544-213.2992 0-64.4096-58.368-109.4656-120.9344-139.264z" fill="#F5B400" /><path d="M622.9504 468.5312c-30.7712 0-55.808-23.6544-55.808-52.7872 0-29.0816 25.0368-52.7872 55.808-52.7872s55.808 23.6544 55.808 52.7872c0 29.0816-25.0368 52.7872-55.808 52.7872z m0-74.8544c-13.824 0-25.088 9.8816-25.088 22.0672s11.264 22.0672 25.088 22.0672 25.088-9.8816 25.088-22.0672c0-12.1344-11.264-22.0672-25.088-22.0672z" fill="#333B44" /><path d="M984.2176 426.2912c-8.0384-2.6624-16.7424 1.7408-19.3536 9.8304-13.312 40.704-30.4128 88.9344-34.7136 95.6416-3.584 4.9664-26.4192 29.7472-132.5056 44.9536 0.3584-3.84 0.5632-7.68 0.5632-11.6224 0-16.64-3.4304-32.5632-9.984-47.8208 136.2944-54.8352 164.4032-176.384 144.128-274.5856l-0.3072-1.28c-23.1424-77.7216-68.5056-128.4608-134.8096-150.6816-93.184-31.2832-199.4752 6.5536-228.096 27.5456a15.38048 15.38048 0 0 0-5.4272 17.408c2.2016 6.3488 8.2432 10.3936 15.0016 10.3424 85.1456-2.8672 129.6384 28.2624 141.8752 55.7056 5.4784 12.288 4.608 23.9104-2.304 31.0784-4.0448 4.1984-8.0384 6.0416-12.9024 6.0416h-0.0512c-22.272-0.0512-56.576-35.9936-81.7152-62.4128a15.36 15.36 0 0 0-16.4864-3.7888 15.24736 15.24736 0 0 0-9.9328 13.7216c-5.0688 113.8688 42.5472 142.592 77.312 163.5328 2.9184 1.7408 5.7856 3.4816 8.6016 5.2224 13.056 8.192 25.3952 12.3392 36.3008 15.9744 20.4288 6.8608 29.7984 9.984 34.2528 33.7408 3.1744 16.896-3.3792 32.5632-19.4048 46.6432-18.1248-14.1312-39.9872-27.3408-65.7408-39.5776-4.0448-1.9456-8.704-1.9968-12.8-0.2048-4.096 1.792-7.2192 5.3248-8.4992 9.5744-2.9184 9.6768-12.9024 16.384-24.2176 16.384-13.824 0-25.088-9.8816-25.088-22.0672 0-3.6864 1.024-7.2704 3.1232-10.5472a15.32928 15.32928 0 0 0-8.3968-22.7328c-30.8736-9.8304-56.6784-15.7696-69.3248-18.432a48.93184 48.93184 0 0 0-22.9376 0.7168c-10.752 2.9696-31.2832 9.0112-56.2176 17.7664-10.24-11.9296-25.856-19.5584-43.3152-19.5584-30.7712 0-55.808 23.6544-55.808 52.7872 0 3.1232 0.3584 6.144 0.8704 9.1136-18.7392 9.984-35.1232 20.224-49.152 30.72-19.5584-15.0528-27.6992-32.0512-24.2176-50.6368 4.4544-23.808 13.7728-26.9312 34.2528-33.7408 10.9056-3.6352 23.2448-7.7824 36.3008-15.9744 2.816-1.7408 5.6832-3.4816 8.6016-5.2224 34.7648-20.9408 82.432-49.664 77.3632-163.5328-0.256-6.144-4.2496-11.4688-10.0352-13.6192a15.52384 15.52384 0 0 0-16.5888 3.84c-25.0368 26.2656-59.2896 62.1568-81.5616 62.2592h-0.0512c-4.864 0-8.8576-1.8944-12.9024-6.0416-6.912-7.168-7.7312-18.7904-2.304-31.0784 12.1856-27.4432 56.7808-58.4704 141.8752-55.7056a15.38048 15.38048 0 0 0 9.5744-27.7504c-28.6208-21.0432-134.912-58.8288-228.096-27.5456-66.2528 22.2208-111.616 72.96-134.8096 150.6816-0.1024 0.4096-0.256 0.8704-0.3072 1.28-7.168 34.6624-32.5632 206.6432 148.0192 276.1728-4.864 11.3664-7.3728 22.9888-7.3728 34.7648 0 7.7312 0.6144 15.2064 1.7408 22.528-102.912-15.2576-125.3376-39.5264-128.768-44.288-4.4032-6.912-21.504-55.1424-34.816-95.8464a15.36 15.36 0 0 0-19.3536-9.8304 15.36 15.36 0 0 0-9.8304 19.3536c9.0112 27.5456 30.8224 92.7744 38.9632 104.0896 13.568 18.8416 52.8384 44.1856 162.56 58.7264 5.376 13.7216 12.6464 26.6752 21.3504 38.8096-29.696 11.008-78.592 31.488-92.5696 51.456-18.5856 26.4704-16.1792 101.632-15.4624 116.4288 0.3584 8.2432 7.168 14.6432 15.36 14.6432h0.7168a15.33952 15.33952 0 0 0 14.6432-16.0256c-1.4336-31.5392 0.7168-84.2752 9.9328-97.3824 7.7312-11.008 49.9712-30.464 88.32-43.9808 9.6768 10.1888 20.2752 19.712 31.4368 28.6208-22.528 18.0224-58.2656 49.8176-64.6656 75.2128-8.448 33.3824 18.3296 101.2736 23.7568 114.5344 2.4576 5.9392 8.192 9.5232 14.2336 9.5232 1.9456 0 3.8912-0.3584 5.8368-1.1776a15.36 15.36 0 0 0 8.3968-20.0192c-11.9296-29.1328-26.7776-77.9776-22.4256-95.3856 3.84-15.2064 35.2256-44.2368 60.6208-63.8464 16.4352 11.1104 33.4848 21.0432 50.1248 29.7472-15.8208 19.7632-40.2432 55.0912-43.1616 88.1152-4.5056 51.2 72.7552 102.5536 81.6128 108.2368a15.2832 15.2832 0 0 0 21.1968-4.608c4.608-7.1168 2.56-16.64-4.608-21.248-23.04-14.848-69.888-53.8624-67.6352-79.7184 2.304-26.1632 25.9584-59.1872 40.8576-76.9024a721.5616 721.5616 0 0 0 74.3424 29.3888c4.864 1.5872 9.984 2.4064 15.104 2.4064 5.0176 0 10.0352-0.768 14.7968-2.304 18.7392-6.0416 50.0224-16.9472 84.7872-32.7168 14.5408 16.64 41.216 52.2752 43.6224 80.1792 2.2528 25.8048-44.5952 64.8704-67.6352 79.7696a15.36512 15.36512 0 0 0 8.3456 28.2624c2.8672 0 5.7344-0.768 8.2944-2.4576 8.8064-5.6832 86.0672-57.0368 81.5616-108.2368-3.072-34.816-30.0544-72.2432-45.6704-91.2384 16.7424-8.5504 33.6896-18.1248 49.9712-28.7232 25.8048 19.5584 59.3408 50.176 63.2832 65.8944 4.4032 17.3568-10.4448 66.2016-22.4256 95.3856-3.2256 7.8336 0.512 16.8448 8.3968 20.0192 1.8944 0.768 3.8912 1.1776 5.8368 1.1776 6.0416 0 11.776-3.584 14.2336-9.5232 5.4272-13.2608 32.2048-81.2032 23.7568-114.5344-6.6048-26.2144-44.4928-59.2896-66.816-76.9024 11.264-8.6528 21.9136-17.8688 31.5392-27.648 38.8608 13.5168 82.5344 33.536 90.368 44.7488 9.2672 13.2096 11.4176 64.9216 9.9328 97.3824a15.3088 15.3088 0 0 0 14.6432 16.0256h0.7168c8.1408 0 14.9504-6.4 15.36-14.6432 0.6656-14.7968 3.1232-90.0096-15.4624-116.4288-14.2848-20.3264-64.7168-41.216-94.208-52.0704 8.704-11.9296 15.7184-24.576 20.6848-37.9392 111.5136-14.4896 151.1936-40.0896 164.864-59.0336 8.1408-11.3152 29.952-76.544 38.9632-104.0896 2.6112-7.8848-1.792-16.5376-9.8304-19.2zM729.088 342.0672c-9.728-3.2256-19.7632-6.6048-29.7472-12.8512-2.9696-1.8432-5.9904-3.6864-9.0624-5.5296-28.0064-16.896-56.832-34.2528-62.0544-98.4576 24.7808 24.0128 51.0976 44.3392 76.9536 44.3904h0.1536c13.312 0 25.088-5.1712 35.0208-15.4624 15.6672-16.2304 18.8416-41.0624 8.2432-64.8704-12.7488-28.672-46.5408-58.112-105.6768-69.376 40.4992-10.9568 94.976-16.64 144.4864 0 56.064 18.8416 94.72 62.464 114.944 129.6896 6.4 31.5392 27.2896 180.3264-129.536 240.7936-4.5568-6.2464-9.728-12.3392-15.5136-18.2784 22.4256-20.8896 31.5392-45.824 26.4704-72.8576-7.7824-41.472-32.6656-49.8176-54.6816-57.1904zM400.8448 393.6768c11.3152 0 20.8384 6.7072 23.9104 15.7696 0.2048 0.6656 0.512 1.28 0.6656 1.9456 0.3072 1.3824 0.512 2.816 0.512 4.3008 0 12.1856-11.264 22.0672-25.088 22.0672-1.4848 0-2.9696-0.1536-4.4032-0.4096l-1.536-0.3072a31.9488 31.9488 0 0 1-2.6112-0.7168c-0.5632-0.2048-1.1264-0.3584-1.6384-0.5632-1.1264-0.4608-2.2016-0.9728-3.2256-1.536-0.6656-0.3584-1.28-0.8192-1.8432-1.2288-0.4608-0.3072-0.9216-0.6656-1.3824-1.024-0.6144-0.4608-1.1776-0.9728-1.6896-1.4848a12.2368 12.2368 0 0 1-1.1264-1.1776c-0.8192-0.9216-1.5872-1.8944-2.2528-2.9184-2.048-3.1744-3.328-6.8096-3.328-10.752-0.0512-12.032 11.1616-21.9648 25.0368-21.9648zM123.7504 249.6c20.224-67.2256 58.88-110.8992 114.944-129.6896 49.5104-16.5888 103.9872-10.9568 144.4864 0-59.0848 11.264-92.928 40.704-105.6768 69.376-10.5472 23.808-7.424 48.64 8.2432 64.8704 9.8816 10.24 21.6576 15.4624 35.0208 15.4624h0.1536c25.8048-0.0512 52.1216-20.3776 76.9536-44.4416-5.1712 64.2048-34.048 81.5616-62.0544 98.4576-3.072 1.8432-6.0928 3.6864-9.0624 5.5296-9.984 6.2464-20.0192 9.6256-29.7472 12.8512-21.9648 7.3728-46.8992 15.7184-54.6816 57.2416-5.376 28.7232 5.12 54.8352 30.464 76.4416-0.8704 0.8704-1.6384 1.6896-2.4576 2.56-1.792 1.8432-3.6352 3.6864-5.3248 5.5296-0.512 0.5632-0.9216 1.1264-1.4336 1.6384-1.9456 2.2016-3.8912 4.4544-5.632 6.7072-161.792-59.2896-140.6464-210.4832-134.1952-242.5344z m393.9328 514.2016c-3.5328 1.1264-7.3728 1.1264-10.9056-0.0512-29.184-9.6256-142.592-50.3296-203.0592-119.04-0.1536-0.2048-0.3072-0.3584-0.4608-0.5632-22.8864-26.1632-38.0928-56.3712-38.0416-90.5216 0-12.6464 4.6592-24.7808 12.3392-36.2496 0.3584-0.512 0.7168-1.0752 1.0752-1.5872 1.28-1.8432 2.6624-3.6864 4.096-5.4784 0.512-0.6656 1.0752-1.28 1.6384-1.9456 1.1264-1.3312 2.304-2.7136 3.5328-4.0448 0.768-0.8704 1.5872-1.7408 2.4064-2.56 1.3312-1.4336 2.7136-2.816 4.1472-4.1984 0.768-0.768 1.536-1.4848 2.3552-2.2528 1.7408-1.6384 3.5328-3.2768 5.376-4.864 0.5632-0.512 1.1776-1.024 1.792-1.4848 16.6912-14.1312 36.8128-26.624 56.2688-37.0176 0.256 0.256 0.5632 0.512 0.8704 0.768 0.3584 0.3072 0.7168 0.6656 1.0752 0.9728 0.9728 0.9216 1.9968 1.792 3.072 2.6624 0.2048 0.1536 0.4096 0.3072 0.5632 0.4096 1.2288 0.9216 2.5088 1.8432 3.7888 2.7136 0.0512 0.0512 0.1536 0.0512 0.2048 0.1024 2.9184 1.8432 6.0416 3.4816 9.3184 4.7616 0.0512 0 0.0512 0 0.1024 0.0512 1.6384 0.6656 3.2768 1.2288 4.9664 1.7408 0.3072 0.1024 0.5632 0.1536 0.8704 0.2048 1.4848 0.4096 2.9696 0.8192 4.4544 1.0752 0.768 0.1536 1.536 0.2048 2.3552 0.3584 1.0752 0.1536 2.1504 0.3584 3.2256 0.4608 1.8944 0.2048 3.7888 0.256 5.7344 0.256 30.7712 0 55.808-23.6544 55.808-52.7872 0-1.6896-0.1024-3.328-0.256-4.9664 23.1424-8.0896 42.0864-13.6704 52.1728-16.4352 2.7136-0.768 5.632-0.8704 8.3968-0.256 9.9328 2.0992 28.3136 6.2976 50.944 12.9536-0.512 2.8672-0.768 5.7856-0.768 8.7552 0 29.0816 25.0368 52.7872 55.808 52.7872 18.3296 0 35.1744-8.6528 45.4656-22.272 21.9648 11.3664 40.192 23.4496 54.8864 36.096 0.2048 0.1536 0.3072 0.4096 0.512 0.5632 12.544 10.9056 22.528 22.3744 29.6448 34.0992 0.1024 0.2048 0.256 0.3072 0.4096 0.4608 9.0624 15.1552 13.6192 31.0784 13.6192 47.616-0.0512 112.7424-208.0768 185.344-249.8048 198.7072z" fill="#333B44" /></svg>