<svg class="svg-icon" style="width: 1em;height: 1em;vertical-align: middle;fill: currentColor;overflow: hidden;" viewBox="0 0 1024 1024" version="1.1" xmlns="http://www.w3.org/2000/svg"><path d="M38.1952 61.0816c-0.3072-5.0176 6.144-7.3728 9.0624-3.2256 16.2304 22.9376 55.6032 60.2624 137.472 52.736 116.6848-10.8032 259.7888-25.4976 309.8112 170.5984-25.4976 36.2496-92.16 65.6384-139.2128 58.7776-19.6096-67.6352-54.9376-143.1552-128.4608-138.24-70.3488 4.7104-180.224 2.2016-188.672-140.6464zM985.8048 61.0816c0.3072-5.0176-6.144-7.3728-9.0624-3.2256-16.2304 22.9376-55.6032 60.2624-137.472 52.736-116.6848-10.8032-259.7888-25.4976-309.8112 170.5984 25.4976 36.3008 92.16 65.6896 139.2128 58.8288 19.6096-67.6352 54.9376-143.1552 128.4608-138.24 70.3488 4.6592 180.224 2.1504 188.672-140.6976z" fill="#FFBE88" /><path d="M668.672 344.1152s0 0.0512 0 0c-47.0528 7.2704-113.7152-23.808-139.2128-62.1568 1.1264-4.7104 2.3552-9.3184 3.584-13.824-13.7728-1.536-27.9552-1.7408-42.2912-0.6656 1.3312 4.7104 2.56 9.5232 3.7888 14.4896-25.4976 38.3488-92.16 69.4272-139.2128 62.1568-1.0752-3.9936-2.2528-7.9872-3.4304-11.9808-22.1696 22.4768-80.0256 52.4288-125.0304 9.8816-1.3312 75.9808 60.1088 127.1296 129.4336 114.688-6.5536 64.9216-14.1824 102.2464 10.7008 135.424 24.832 33.1776 23.7568 35.9424 27.648 78.7456 3.9424 42.8544 35.072 96.7168 114.0736 96.7168 79.0016 0 111.2064-48.384 113.8176-93.952s14.1312-62.9248 36.096-89.9072c24.1664-29.696 16.5888-82.7904 4.864-131.1744 40.4992 0 109.824-11.0592 135.936-100.864-23.552 8.0384-88.4736 11.6736-130.7648-7.5776z" fill="#F39800" /><path d="M550.4512 785.5616c7.3216-11.8784 12.5952-19.5072 14.5408-27.392-13.3632 9.5744-33.4848 16.128-63.5904 16.128-30.4128 0-48.5376-10.752-59.2896-24.7296-2.9184 11.0592-5.3248 31.5904 5.7344 56.4224 16.6912 37.5808 99.6864 121.2416 51.1488 182.528 21.0944-4.9152 73.0624-41.6768 58.3168-106.3936-14.7456-64.6656-17.2032-79.872-6.8608-96.5632z" fill="#FF7443" /><path d="M381.7984 440.9856s61.7472-20.5824 48.9984 87.2448c-36.2496-35.2768-41.1648-43.1616-48.9984-87.2448zM642.2016 440.9856s-61.7472-20.5824-48.9984 87.2448c36.2496-35.2768 41.1648-43.1616 48.9984-87.2448z" fill="#FFFFFF" /><path d="M480.9728 662.8864h56.576c11.7248 0 19.2512 12.544 13.6192 22.8352-10.24 18.8416-26.3168 42.496-42.496 42.496-16.2816 0-31.7952-23.9104-41.5232-42.8032-5.2736-10.2912 2.2528-22.528 13.824-22.528z" fill="#F7935C" /><path d="M987.5456 41.5232a20.18816 20.18816 0 0 0-23.3472 7.4752c-14.2848 20.224-49.408 53.1456-123.4944 46.2848l-2.56-0.256c-109.312-10.1376-257.3312-23.808-316.16 156.8256-6.6048-0.3584-13.312-0.4608-20.0192-0.3072-58.9824-180.2752-206.848-166.6048-316.1088-156.5184l-2.56 0.256c-74.1376 6.8608-109.2096-26.0608-123.4944-46.2848a20.16256 20.16256 0 0 0-23.3472-7.4752c-8.704 3.0208-14.1824 11.264-13.6192 20.48 3.1232 52.5312 19.7632 92.416 49.5104 118.6816 43.7248 38.5536 106.0352 39.7312 155.5456 36.4032 46.592-3.1744 81.7664 32.8192 107.2128 109.568-19.0464 15.4624-62.2592 37.7344-97.6384 4.2496a15.35488 15.35488 0 0 0-25.9072 10.8544c-0.7168 40.96 15.4624 78.592 44.4416 103.2192 22.9888 19.6096 52.48 29.696 83.0976 28.928-0.0512 0.7168-0.1536 1.4336-0.2048 2.0992-5.888 54.8352-9.8304 91.0848 15.872 125.3376 20.7872 27.7504 20.8896 29.1328 24.0128 63.8976l0.6656 7.0656c2.8672 31.5904 17.92 63.2832 45.7216 84.6336-1.6896 13.5168-1.1776 33.024 8.704 55.2448 4.4544 9.984 12.288 21.76 21.3504 35.3792 26.1632 39.3216 62.0544 93.184 31.7952 131.3792a15.34464 15.34464 0 1 0 12.032 24.8832c1.1776 0 2.304-0.1536 3.4816-0.4096 31.488-7.3216 86.1696-52.7872 69.8368-124.7232-14.336-63.0784-15.4624-74.24-8.7552-85.0944l2.9696-4.8128c4.7616-7.6288 8.7552-14.0288 11.3664-20.6848 40.4992-20.5824 58.0608-59.0848 60.0576-93.5936 2.4064-42.0864 12.8512-56.7296 32.7168-81.1008 25.7536-31.6416 21.4016-81.8176 11.9808-126.3104 66.816-5.9904 112.128-44.0832 131.6352-111.104 1.5872-5.4784 0-11.4176-4.1472-15.36s-10.1376-5.2736-15.5648-3.4816c-18.3808 6.1952-69.7856 9.7792-108.0832-2.7136 25.6-82.1248 61.44-120.7296 109.6704-117.4016 49.4592 3.328 111.7696 2.1504 155.4944-36.4032 29.7472-26.2144 46.3872-66.1504 49.5104-118.6816 0.4608-9.1648-4.9664-17.3568-13.6704-20.4288zM225.8432 186.4192c-43.52 2.9184-97.9456 2.2528-133.1712-28.7744-17.4592-15.36-29.184-37.5296-35.1232-66.048 24.6272 20.8384 65.1264 40.1408 128.6144 34.304l2.56-0.256c112.128-10.3936 238.848-22.016 287.7952 147.8144 0.4096 1.4848 0.8192 2.9184 1.1776 4.4032-23.3984 27.2896-73.3184 48.6912-110.5408 47.7184-13.824-45.6192-49.92-145.2544-141.312-139.1616z m303.616 762.112c1.3824-42.5472-27.5456-86.0672-48.7424-117.9136-7.936-11.9296-15.4624-23.2448-18.8416-30.8224a78.8992 78.8992 0 0 1-5.888-19.5584c12.7488 6.2464 27.9552 9.4208 45.4656 9.4208 11.2128 0 21.6064-0.8704 31.0784-2.56-7.5776 19.3024-3.0208 42.0864 9.8304 98.4576 6.1952 27.392-1.6896 48.384-12.9024 62.976z m246.016-576.5632c-20.6848 43.3664-58.2144 65.28-111.9744 65.28-2.1504 0-4.2496 0.512-6.144 1.3312a15.44704 15.44704 0 0 0-10.2912-12.2368c-9.7792-3.2768-30.8224-5.1712-47.5648 8.448-19.8656 16.1792-27.136 48.1792-21.5552 95.1808a15.29344 15.29344 0 0 0 15.2576 13.5168c3.9424 0 7.7824-1.536 10.7008-4.352 29.5424-28.7232 40.3456-41.3184 47.8208-69.376 7.9872 36.5056 13.6704 81.3056-4.9664 104.2432-22.6816 27.8528-36.6592 48.4352-39.5264 98.7648-2.2016 38.4-29.2352 79.4624-98.5088 79.4624-23.4496 0-41.3184-5.0688-54.9376-12.6464-2.048-2.4064-4.7616-4.096-7.7312-4.864-30.0032-21.4016-35.2256-55.8592-36.096-65.2288l-0.6144-7.0144c-3.4304-38.4512-4.7616-45.7728-30.0544-79.5648-18.432-24.576-15.4112-52.6848-9.8816-103.6288 0.512-4.7104 1.024-9.6768 1.5872-14.7456 7.5776 31.8464 17.8176 44.1856 49.152 74.6496 2.9184 2.816 6.7584 4.352 10.7008 4.352 1.7408 0 3.4304-0.3072 5.12-0.8704a15.37536 15.37536 0 0 0 10.1376-12.6464c5.5296-47.0016-1.6896-79.0016-21.5552-95.1808-16.6912-13.6192-37.7856-11.7248-47.5648-8.448a15.40096 15.40096 0 0 0-10.2912 17.2544c0.1536 0.768 0.256 1.4848 0.4096 2.2528-0.1536-0.1024-0.2048-0.3072-0.3584-0.4096-2.8672-2.6624-6.6048-4.096-10.4448-4.096-0.9216 0-1.792 0.1024-2.7136 0.256-28.416 5.12-56.7296-2.2016-77.7216-20.0704-15.0016-12.8-25.344-29.7472-30.3104-49.3056 35.2768 14.2336 73.8816 3.0208 100.8128-15.616 1.8944 1.3824 4.1472 2.304 6.5536 2.6624C404.48 367.3088 478.0032 334.4384 507.2896 290.4576c1.6384-2.5088 2.5088-5.376 2.56-8.2944 1.3824 0 2.816 0.0512 4.1984 0.0512 0.0512 2.9184 0.9216 5.7856 2.56 8.2432 28.416 42.7008 98.6624 74.9568 149.8624 69.4272 33.9968 14.0288 77.8752 15.5136 109.0048 12.0832z m-151.808 84.0192c-3.4304 15.4112-7.3728 24.4736-16.5376 35.6352 1.3824-20.5312 7.3216-29.184 11.6224-32.8192 1.536-1.28 3.2256-2.2016 4.9152-2.816z m-223.3344 0c1.6384 0.6144 3.2256 1.4848 4.7616 2.7136 4.352 3.584 10.3936 12.1856 11.8272 32.9728-9.216-11.264-13.1072-20.3264-16.5888-35.6864zM931.328 157.6448c-35.2256 31.0272-89.6512 31.6928-133.1712 28.7744-91.4944-6.0416-127.488 93.5424-141.2608 139.1616-37.376 0.9728-87.1936-20.4288-110.5408-47.7184 0.3584-1.4848 0.768-2.9184 1.1776-4.352 48.896-169.8816 175.616-158.2592 287.7952-147.8656l2.56 0.256c63.488 5.8368 103.936-13.4144 128.6144-34.304-5.9904 28.5184-17.7664 50.6368-35.1744 66.048z" fill="#333B44" /><path d="M537.5488 647.5264H480.9728c-10.8544 0-20.6848 5.5296-26.368 14.7968a30.61248 30.61248 0 0 0-1.0752 30.1568c17.7152 34.4064 35.7376 51.1488 55.1424 51.1488 19.2 0 37.5296-16.5376 56.0128-50.5344 5.2224-9.6256 5.0176-21.0432-0.6144-30.464a30.4896 30.4896 0 0 0-26.5216-15.104z m-28.8256 65.3312c-2.6112 0-13.3632-6.3488-27.8016-34.6112h0.1024l56.7296 0.1536c-15.4112 28.2624-26.1632 34.4576-29.0304 34.4576z" fill="#333B44" /></svg>