<svg class="svg-icon" style="width: 1em;height: 1em;vertical-align: middle;fill: currentColor;overflow: hidden;" viewBox="0 0 1024 1024" version="1.1" xmlns="http://www.w3.org/2000/svg"><path d="M517.2736 124.672m-64.256 0a64.256 64.256 0 1 0 128.512 0 64.256 64.256 0 1 0-128.512 0Z" fill="#F7A152" /><path d="M487.3216 198.4512c-38.5024 0.6656-92.8256 6.4512-171.3152 49.8688-150.8352 81.8176-193.024 33.2288-193.024 33.2288 14.08 89.4976 125.2864 77.9776 158.5152 63.8976 30.3104-12.8 120.0128-59.4432 205.824-67.6352v-79.36zM704.6656 247.0912c-63.5392-37.0688-119.5008-45.8752-159.7952-47.9744v79.0016c69.0688 6.912 103.936 35.9424 194.304 66.048 103.5776 34.5088 145.7664-22.9888 166.1952-63.8976-34.5088 14.0288-117.6064 15.3088-200.704-33.1776z" fill="#FF7443" /><path d="M50.1248 712.3456h309.7088s-13.4144 106.4448-169.728 106.4448c-119.8592 0-139.9808-106.4448-139.9808-106.4448zM671.5392 712.3456h309.7088s-13.4144 106.4448-169.728 106.4448c-119.8592 0-139.9808-106.4448-139.9808-106.4448z" fill="#F2B655" /><path d="M517.2736 188.4672c-10.8032 0-20.992-2.56-29.952-6.9632v311.296h57.5488V182.5792c-8.3968 3.7376-17.7152 5.888-27.5968 5.888zM657.5104 857.1392v-15.36c0-7.68-6.2464-13.9264-13.9264-13.9264H389.0688c-7.68 0-13.9264 6.2464-13.9264 13.9264v15.36c0 7.68-6.2464 13.9264-13.9264 13.9264h-1.8944c-7.68 0-13.9264 6.2464-13.9264 13.9264v39.3216c0 7.68 6.2464 13.9264 13.9264 13.9264h312.1152c7.68 0 13.9264-6.2464 13.9264-13.9264v-39.3216c0-7.68-6.2464-13.9264-13.9264-13.9264a13.9776 13.9776 0 0 1-13.9264-13.9264z" fill="#FF7443" /><path d="M564.0192 746.4448V505.3952c0-6.9632-5.632-12.6464-12.6464-12.6464H478.8736c-6.9632 0-12.6464 5.632-12.6464 12.6464v241.0496c0 2.56-1.3312 4.9152-3.4304 6.4-23.7056 16.5376-39.2192 43.9296-39.2192 75.0592h183.1424c0-31.0784-15.5648-58.4704-39.2192-75.0592-2.1504-1.4848-3.4816-3.84-3.4816-6.4z" fill="#FF7443" /><path d="M992.768 702.208a15.31904 15.31904 0 0 0-11.52-5.2224h-36.4032l-102.2464-300.9024c12.288-1.3824 21.8624-11.7248 21.8624-24.3712v-20.0704c21.76-13.824 40.0384-35.2768 54.6304-64.512 2.8672-5.7344 1.8944-12.5952-2.4576-17.3056a15.32928 15.32928 0 0 0-17.0496-3.7888c-30.0544 12.2368-107.4688 14.336-187.1872-32.2048-45.6704-26.624-92.9792-42.496-144.0256-48.2304 17.408-14.592 28.4672-36.5056 28.4672-60.928 0-43.8784-35.6864-79.616-79.616-79.616s-79.616 35.6864-79.616 79.616c0 23.6544 10.3936 44.8512 26.8288 59.4432-38.5536 3.0208-89.088 13.7728-155.8016 50.6368-129.6384 70.4-171.0592 39.168-174.2336 36.4544-4.2496-5.4784-11.3152-7.0144-17.7152-4.3008-6.5024 2.7136-9.984 10.0352-8.8576 16.9984 4.9664 31.5392 21.504 55.9616 47.7696 70.5536 2.1504 1.2288 4.4032 2.304 6.7072 3.328v15.4624c0 11.008 7.3216 20.2752 17.3056 23.3984l-98.6112 300.288H50.1248c-4.5568 0-8.9088 2.048-11.8272 5.5808-2.9184 3.5328-4.096 8.1408-3.2768 12.6464 0.2048 1.1776 24.0128 118.9376 155.0848 118.9376 167.8848 0 184.7808-118.6816 184.9344-119.8592 0.5632-4.352-0.8192-8.7552-3.7376-12.0832a15.31904 15.31904 0 0 0-11.52-5.2224h-36.4032L221.3376 396.6464c9.8816-3.2256 17.1008-12.3904 17.1008-23.3472v-3.4304c19.6096-1.28 37.2736-5.2736 49.0496-10.2912 4.7616-1.9968 10.9568-4.864 18.3808-8.2432 36.3008-16.5888 101.376-46.2336 166.0928-56.1152v183.0912c-12.0832 3.072-21.0944 14.0288-21.0944 27.0848v237.1072a107.2128 107.2128 0 0 0-41.5232 69.9904h-20.3264c-16.128 0-29.2864 13.1072-29.2864 29.2864v13.8752h-0.4608c-16.128 0-29.2352 13.1072-29.2352 29.2352v39.3216c0 16.128 13.1072 29.2352 29.2352 29.2352h312.1152c16.128 0 29.2864-13.1072 29.2864-29.2352v-39.3216c0-15.6672-12.3392-28.4672-27.8016-29.2352v-13.9264c0-16.128-13.1072-29.2864-29.2864-29.2864h-22.7328a106.88512 106.88512 0 0 0-41.5232-69.9904v-237.056c0-12.3392-8.0384-22.8352-19.2-26.5216V295.6288c31.6416 5.3248 56.32 15.872 88.6272 29.7472 23.6032 10.1376 50.3296 21.6064 85.4528 33.3312 19.1488 6.4 37.1712 10.0864 53.9648 11.1104v1.8432c0 9.6256 5.632 17.92 13.6704 21.9648l-99.584 303.36h-30.8736c-4.5568 0-8.9088 2.048-11.8272 5.5808-2.9184 3.5328-4.096 8.1408-3.2768 12.6464 0.2048 1.1776 24.0128 118.9376 155.0848 118.9376 167.8848 0 184.7808-118.6816 184.9344-119.8592a14.592 14.592 0 0 0-3.5328-12.0832z m-159.0272-336.5888h-0.9728c0.3072-0.1024 0.6656-0.1536 0.9728-0.256v0.256z m-304.2304-87.5008v199.3216h-26.8288V202.9056c4.7104 0.8704 9.5744 1.3824 14.592 1.3824 4.1472 0 8.2432-0.4096 12.2368-1.024v74.8544z m-12.2368-202.2912c26.9312 0 48.896 21.9136 48.896 48.896 0 19.1488-11.1104 35.7376-27.2384 43.776-0.1024 0.0512-0.2048 0.0512-0.3584 0.1024-14.2336 6.3488-30.6688 5.9904-44.3392-0.768-15.36-8.2432-25.856-24.4736-25.856-43.1104 0-26.9824 21.9648-48.896 48.896-48.896z m-327.168 727.6032c-77.0048 0-107.8272-48.3328-119.0912-75.7248h268.2368c-11.4688 26.9312-46.3872 75.7248-149.1456 75.7248z m-76.8-106.4448L200.6016 431.104l90.368 265.9328h-177.664z m179.8144-373.6064c-7.1168 3.2256-13.056 5.9392-17.6128 7.8848-7.8336 3.328-21.4528 6.5024-37.0688 7.7824v-1.9456c0-8.4992-6.8608-15.36-15.36-15.36h-45.4656c-3.9424 0-7.4752 1.536-10.1888 3.9424-7.0656-4.4032-12.9536-9.728-17.5104-16.128 31.744 5.3248 85.9648-0.4096 173.5168-47.872 64.8192-35.84 112.6912-45.1072 148.5312-47.3088v49.7664c-70.5536 9.7792-140.288 41.6256-178.8416 59.2384z m376.832 562.9952v36.4544H360.8064v-36.4032h0.4608c16.128 0 29.2352-13.1072 29.2352-29.2864v-13.8752H642.2016v13.8752c-0.0512 15.6672 12.288 28.4672 27.7504 29.2352z m-80.1792-73.8304H440.5248c3.8912-18.8416 14.9504-35.7888 31.0784-47.104a23.22432 23.22432 0 0 0 9.984-18.9952V508.16h67.1232v238.2848c0 7.5264 3.7376 14.6432 9.984 18.9952 16.128 11.264 27.136 28.2112 31.0784 47.104z m154.2656-482.9696c-33.8944-11.3152-60.0064-22.528-83.0464-32.4096-34.7648-14.9504-62.976-27.0336-100.7616-32.6656v-48.8448c48.5376 4.7616 93.44 19.456 136.704 44.6976 66.56 38.8608 131.84 47.104 176.2304 42.6496a104.6528 104.6528 0 0 1-18.6368 18.176c-1.6896-0.6144-3.4816-1.024-5.376-1.024h-45.4656c-8.4992 0-15.36 6.8608-15.36 15.36v3.3792c-13.1584-0.9216-27.8016-3.7888-44.288-9.3184z m78.0288 101.5296l90.368 265.9328h-177.664l87.296-265.9328z m-10.5472 372.3264c-77.0048 0-107.8272-48.3328-119.0912-75.7248h268.2368c-11.4176 26.9312-46.3872 75.7248-149.1456 75.7248z" fill="#333B44" /></svg>