<svg class="svg-icon" style="width: 1em;height: 1em;vertical-align: middle;fill: currentColor;overflow: hidden;" viewBox="0 0 1024 1024" version="1.1" xmlns="http://www.w3.org/2000/svg"><path d="M738.816 268.1344c-9.7792-18.8928-37.5296-65.2288-89.4464-100.8128-5.4272 7.9872-20.6336 10.4448-36.352 5.3248-17.5616-5.7344-29.0304-18.7392-25.6512-29.0304 0.768-2.304 2.2528-4.3008 4.2496-5.9392-43.6736-15.8208-98.0992-22.2208-165.0176-8.96-234.8032 46.3872-301.312 254.7712-295.0656 428.032l47.9232-26.4704c29.184-50.0224 77.1584-106.5472 152.9856-135.5264 99.1744-30.1056 127.0784-28.8768 174.6432-30.1056 16.5888-0.4608 46.848-4.1472 80.384-11.2128-2.9184-2.2528-4.8128-5.0176-5.4272-8.2432-1.9968-10.6496 11.1104-22.016 29.2864-25.3952 18.176-3.3792 34.4576 2.5088 36.4544 13.2096 0.256 1.4848 0.256 2.9696-0.0512 4.4032 38.3488-12.6464 73.216-29.7984 89.7024-51.7632 3.84-5.12 4.3008-11.8784 1.3824-17.5104zM284.8256 755.2512c9.7792 18.8928 37.5296 65.2288 89.4464 100.8128 5.4272-7.9872 20.6336-10.4448 36.352-5.3248 17.5616 5.7344 29.0304 18.7392 25.6512 29.0304-0.768 2.3552-2.2528 4.3008-4.2496 5.9392 43.6736 15.8208 98.0992 22.2208 165.0176 8.96 234.752-46.4384 301.312-254.8736 295.0144-428.1344l-47.9232 26.4704c-29.184 50.0224-77.1584 106.5472-152.9856 135.5264-99.1744 30.1056-127.0784 28.8768-174.6432 30.1056-16.5888 0.4608-46.848 4.1472-80.384 11.2128 2.9184 2.2528 4.8128 5.0176 5.4272 8.2432 1.9968 10.6496-11.1104 22.016-29.2864 25.3952s-34.4576-2.5088-36.4544-13.2096c-0.256-1.4848-0.256-2.9696 0.0512-4.4032-38.3488 12.6464-73.216 29.7984-89.7024 51.7632a16.83968 16.83968 0 0 0-1.3312 17.6128z" fill="#F98E23" /><path d="M68.9152 716.3904l62.6176-159.6416 47.9232-26.4704s11.9296 96.5632 28.0064 147.5584c2.048 6.4512-5.12 11.8784-10.752 8.192-19.456-12.5952-38.6048-24.2176-47.4624-29.5936-2.9696-1.792-6.7584-1.2288-9.0624 1.3824l-59.136 65.9968c-5.4272 5.9904-15.0528 0.0512-12.1344-7.424zM446.4128 367.9744c-0.4096 10.5472-8.4992 22.3232-19.3024 30.4128-13.0048 9.7792-56.064 31.232-51.6608 43.2128 4.4544 12.032 61.0816 44.2368 100.8128 2.1504 25.8048-27.3408 17.2544-59.392 8.1408-78.4896-12.3392 0.4096-24.32 1.024-37.9904 2.7136zM377.7024 121.4976c11.1616 1.024 22.1184 5.2224 28.8256 11.6736 6.5536-1.6384 13.2096-3.1232 20.0192-4.5056 6.0416-1.1776 11.9296-2.2016 17.7664-3.072-1.0752-20.48-8.6528-57.7536-48.5376-68.5056-55.808-15.0528-87.1936 42.0352-84.6848 54.6304 2.5088 12.544 50.432 8.2432 66.6112 9.7792zM954.7264 306.944l-62.6176 159.6416-47.9232 26.4704s-11.9296-96.5632-28.0064-147.5584c-2.048-6.4512 5.12-11.8784 10.752-8.192 19.456 12.5952 38.6048 24.2176 47.4624 29.5936 2.9696 1.792 6.7584 1.2288 9.0624-1.3824L942.592 299.52c5.4272-5.9904 15.104-0.0512 12.1344 7.424zM577.28 655.4112c0.4096-10.5472 8.4992-22.3232 19.3024-30.4128 13.0048-9.7792 56.064-31.232 51.6608-43.2128-4.4544-12.032-61.0816-44.2368-100.8128-2.1504-25.8048 27.3408-17.2544 59.392-8.1408 78.4896 12.288-0.4096 24.32-1.0752 37.9904-2.7136zM645.9392 901.888c-11.1616-1.024-22.1184-5.2224-28.8256-11.6736-6.5536 1.6384-13.2096 3.1232-20.0192 4.5056-6.0416 1.1776-11.9296 2.2016-17.7664 3.072 1.0752 20.48 8.6528 57.7536 48.5376 68.5056 55.8592 15.0528 87.2448-42.0352 84.736-54.6304-2.56-12.544-50.432-8.2432-66.6624-9.7792zM517.9392 219.3408s-67.7888-66.8672-171.3664-11.3152C265.5744 257.024 249.5488 327.6288 249.5488 327.6288s68.7616-47.2576 105.472-50.944 64.3072-33.8432 91.3408-44.8c24.7808-10.0352 71.5776-12.544 71.5776-12.544zM505.7536 803.9936s67.7888 66.8672 171.3664 11.3152c80.9984-48.9472 96.9728-119.6032 96.9728-119.6032s-68.7616 47.2576-105.472 50.944c-36.7104 3.6864-64.3072 33.8432-91.3408 44.8-24.7808 10.0352-71.5264 12.544-71.5264 12.544z" fill="#FFEED9" /><path d="M424.3968 262.2976c9.8816-6.5536 19.2-12.6976 27.6992-16.128 18.3296-7.424 54.3232-10.8032 66.6112-11.4688 6.0928-0.3072 11.3664-4.1984 13.5168-9.8816 2.1504-5.6832 0.768-12.0832-3.584-16.384-0.768-0.768-77.1584-74.0864-189.44-13.8752-0.256 0.1024-0.4608 0.256-0.6656 0.4096-85.504 51.712-103.2192 126.1568-103.936 129.28a15.4624 15.4624 0 0 0 6.3488 16.128c2.6112 1.7408 5.632 2.6624 8.6016 2.6624 3.0208 0 6.0928-0.9216 8.704-2.7136 18.2272-12.544 71.424-45.6192 98.304-48.3328 27.0336-2.7136 48.6912-17.0496 67.84-29.696z m-139.8272 25.8048c13.4144-20.8384 35.1744-45.7728 69.5808-66.7136 50.4832-26.9824 91.136-22.2208 117.76-12.0832-11.1104 1.9968-22.3744 4.7104-31.3344 8.3456-11.3664 4.608-21.9136 11.5712-33.1264 18.9952-16.9472 11.2128-34.5088 22.8352-53.9648 24.7296-19.9168 2.048-46.4896 14.336-68.9152 26.7264z" fill="#333B44" /><path d="M337.408 409.344c31.7952-9.6768 56.064-15.9744 75.9808-20.1728-2.6112 1.6896-5.7344 3.6352-9.0624 5.6832-25.0368 15.4624-50.9952 31.3856-43.3152 52.1216 4.8128 13.056 26.1632 26.5216 49.6128 31.3344 6.144 1.2288 12.1344 1.8432 18.0224 1.8432 22.3232 0 42.752-8.8576 58.7264-25.8048 19.3536-20.48 25.6512-46.336 18.6368-74.24l1.4336-0.0512c14.9504-0.4096 42.7008-3.328 77.1584-10.3424 6.6048 3.2256 14.6432 5.0176 23.5008 5.0176 4.1984 0 8.6016-0.4096 13.1072-1.2288 17.8688-3.328 31.6416-12.4416 38.0416-23.808 44.1856-15.36 74.5984-33.792 90.368-54.8352 7.2704-9.6768 8.3456-22.9376 2.7648-33.792-9.472-18.3808-36.2496-63.4368-85.6576-100.1984 0.2048-16.4352-14.1824-32.8192-36.8128-40.192-11.0592-3.6352-22.528-4.4032-32.3072-2.304-2.7136 0.6144-5.2736 1.4336-7.6288 2.4576-40.6528-13.5168-84.992-17.7664-132.3008-12.544-6.4-33.9968-26.88-57.7024-57.9072-66.048-28.416-7.68-56.1152-0.6144-77.9776 19.8144-17.4592 16.3328-28.5696 38.9632-25.856 52.6336 3.6864 18.3808 26.112 21.1968 50.7392 21.6064-73.7792 30.1568-131.2768 80.7424-171.3664 151.296-41.3184 72.704-62.2592 167.2192-59.1872 266.4448l-61.4912 156.7744c-4.0448 10.3424-0.3072 21.6064 9.1648 27.4432 3.7376 2.304 7.8848 3.4304 11.9296 3.4304 6.1952 0 12.2368-2.6112 16.6912-7.5776l54.6304-60.9792c9.5232 5.7856 25.2928 15.5136 41.3184 25.8048 8.0896 5.2224 18.2784 4.864 25.9584-0.9728a22.272 22.272 0 0 0 7.8336-24.7296c-13.4144-42.4448-24.0128-118.9888-26.7264-139.5712 36.1472-60.1088 83.8656-101.9904 141.9776-124.3136z m127.6416 23.9104c-10.9056 11.5712-24.32 16.9472-39.7312 16.0768-13.4144-0.8192-25.0368-6.1952-31.3856-10.4448 6.8096-5.7344 19.6096-13.6192 26.5216-17.92 6.4-3.9424 11.9296-7.3728 15.872-10.2912 10.496-7.8848 18.432-18.1248 22.4256-28.5696a285.184 285.184 0 0 1 12.6976-0.9216c0.3584 0 0.6656-0.0512 1.024-0.0512 0.6144-0.0512 1.2288-0.0512 1.8432-0.1024 7.2192 20.5312 4.1472 38.0416-9.2672 52.224z m150.6304-89.9584c-8.448 1.5872-14.4896 0.2048-17.3568-1.1264 0.1024-0.1024 0.2048-0.2048 0.3072-0.256 0.2048-0.1536 0.3584-0.3584 0.5632-0.512 0.1536-0.1536 0.3072-0.256 0.512-0.4096l0.7168-0.5632c0.2048-0.1536 0.4096-0.3072 0.6656-0.4608 0.256-0.2048 0.5632-0.3584 0.8704-0.5632 0.256-0.1536 0.5632-0.3072 0.8192-0.4608 0.3072-0.2048 0.6144-0.3584 0.9728-0.5632 0.3072-0.1536 0.7168-0.3584 1.0752-0.512 0.3584-0.1536 0.6656-0.3584 1.0752-0.512 0.4096-0.2048 0.9216-0.3584 1.3312-0.512 0.3584-0.1536 0.7168-0.256 1.0752-0.4096 0.5632-0.2048 1.1776-0.3584 1.8432-0.5632 0.3072-0.1024 0.6144-0.2048 0.9216-0.256 0.9728-0.256 1.9968-0.512 3.072-0.6656 1.1264-0.2048 2.2016-0.3584 3.2256-0.4608 0.4608-0.0512 0.8704-0.0512 1.28-0.1024 0.5632-0.0512 1.1264-0.1024 1.6384-0.1024h2.6624c0.4096 0 0.8192 0.0512 1.2288 0.1024 0.4096 0.0512 0.8192 0.0512 1.1776 0.1024l1.0752 0.1536c0.3584 0.0512 0.7168 0.1024 1.0752 0.2048 0.3072 0.0512 0.6144 0.1024 0.8704 0.2048 0.3584 0.1024 0.6656 0.2048 1.024 0.256 0.2048 0.0512 0.4096 0.1024 0.6144 0.2048 0.3584 0.1024 0.6656 0.256 0.9728 0.3584 0.1024 0.0512 0.256 0.1024 0.3072 0.1536 0.0512 0 0.0512 0.0512 0.1024 0.0512-2.1504 2.2016-7.2704 5.632-15.7184 7.2192z m4.7616-193.3824c8.1408 2.6624 12.7488 6.7584 14.6944 9.2672-0.5632 0.1536-1.1776 0.3072-1.8944 0.4608-0.0512 0-0.1024 0-0.1536 0.0512-0.6144 0.1024-1.28 0.2048-2.048 0.256h-0.1536c-0.8192 0.0512-1.6896 0.0512-2.6112 0.0512h-0.0512c-0.8704-0.0512-1.7408-0.1024-2.7136-0.2048-0.256-0.0512-0.512-0.0512-0.8192-0.1024a47.4112 47.4112 0 0 1-2.4064-0.4096c-0.3072-0.0512-0.6144-0.1024-0.9216-0.2048-1.1264-0.256-2.304-0.5632-3.5328-0.9728-1.0752-0.3584-2.048-0.7168-3.0208-1.1264-0.3072-0.1536-0.6144-0.256-0.9216-0.4096-0.6144-0.256-1.1776-0.512-1.7408-0.8192-0.3584-0.1536-0.6656-0.3584-0.9728-0.512-0.4608-0.256-0.9216-0.512-1.3312-0.7168a8.9088 8.9088 0 0 0-0.9216-0.5632c-0.3584-0.256-0.7168-0.4608-1.0752-0.7168-0.3072-0.2048-0.5632-0.4096-0.8192-0.6144-0.3072-0.2048-0.6144-0.4608-0.8704-0.6656-0.256-0.2048-0.4608-0.4096-0.7168-0.6144-0.256-0.2048-0.4608-0.4096-0.6656-0.6144l-0.5632-0.5632a5.09952 5.09952 0 0 1-0.512-0.5632c-0.1536-0.2048-0.3072-0.3584-0.4096-0.512-0.0512-0.1024-0.1024-0.1536-0.2048-0.256 3.0208-1.0752 9.1648-1.6384 17.3568 1.0752zM410.112 116.48c-8.5504-5.5808-19.4048-9.216-30.976-10.2912-4.864-0.4608-11.3664-0.4608-18.8928-0.4608-8.192 0-23.1936 0-32-1.3312 3.2256-6.9632 10.2912-17.6128 21.2992-25.344 12.6976-8.8576 26.88-11.264 42.2912-7.1168 22.7328 6.144 32.0512 23.7056 35.5328 40.96-1.28 0.2048-2.5088 0.4608-3.7376 0.7168-4.352 0.8192-8.8064 1.792-13.5168 2.8672z m-252.9792 526.848a22.57408 22.57408 0 0 0-28.416 4.2496l-28.9792 32.3072 44.0832-112.384 12.032-6.656 11.4176-6.2976c3.7888 26.5216 10.8544 71.424 19.7632 107.1104-13.2608-8.2432-24.576-15.104-29.9008-18.3296z m11.264-124.4672l-21.76 12.032c1.1776-100.5056 30.6688-325.2736 263.6288-382.8736h0.0512c3.328-0.8192 6.5024-1.5872 9.5744-2.2528 3.2256-0.7168 6.4512-1.4336 9.7792-2.048 5.2736-1.024 10.5472-1.9456 15.7696-2.7648 0.4608-0.0512 0.8704-0.1536 1.3312-0.2048 0.0512 0 0.1024-0.0512 0.1536-0.0512 16.9472-2.56 33.4848-3.84 49.5104-3.84 26.368 0 51.456 3.4304 75.1104 10.2912 0 1.0752 0.0512 2.1504 0.2048 3.1744l0.1536 0.8704c0.1536 0.9216 0.3072 1.8432 0.512 2.7648 0.1024 0.3584 0.1536 0.7168 0.256 1.0752 0.256 0.9728 0.6144 1.9968 0.9728 2.9696 0.1024 0.2048 0.1536 0.4096 0.2048 0.6144 0.4608 1.1776 1.024 2.304 1.6384 3.4816 0.1536 0.3072 0.3584 0.6144 0.5632 0.9216 0.512 0.8704 1.024 1.7408 1.6384 2.56 0.2048 0.3584 0.4608 0.6656 0.7168 1.024 0.8192 1.1264 1.6384 2.2016 2.6112 3.2768 6.656 7.4752 16.384 13.6192 27.4432 17.2544 1.8944 0.6144 3.7376 1.1264 5.5808 1.5872 0.6144 0.1536 1.1776 0.256 1.792 0.3584 1.2288 0.256 2.5088 0.5632 3.7376 0.7168 0.7168 0.1024 1.3824 0.1536 2.0992 0.256 1.1264 0.1536 2.2016 0.3072 3.328 0.3584 0.7168 0.0512 1.4336 0.0512 2.1504 0.1024 0.8192 0.0512 1.5872 0.1024 2.4064 0.1024 0.2048 0 0.4096-0.0512 0.5632-0.0512 1.7408 0 3.4304-0.1024 5.12-0.3072 0.256-0.0512 0.5632 0 0.8192-0.0512 1.8432-0.2048 3.6352-0.5632 5.376-0.9728 0.768-0.1536 1.4336-0.4096 2.2016-0.6144 0.9728-0.256 1.8944-0.5632 2.816-0.9216 0.8192-0.3072 1.6384-0.6656 2.4576-1.024 0.3584-0.1536 0.7168-0.256 1.0752-0.4096 43.52 32.7168 67.1232 72.4992 75.52 88.7808 0.1536 0.3584 0.256 0.8192-0.0512 1.2288-11.0592 14.7456-34.4064 28.9792-67.9936 41.4208l-0.2048-0.2048c-1.024-1.28-2.1504-2.4064-3.3792-3.5328-0.256-0.256-0.5632-0.4608-0.8704-0.7168-1.1264-0.9216-2.304-1.792-3.584-2.6112-0.256-0.1536-0.4608-0.3584-0.7168-0.512-1.4848-0.8704-3.0208-1.6896-4.7104-2.4064-0.4096-0.1536-0.8192-0.3584-1.2288-0.512-1.536-0.6144-3.072-1.1776-4.7104-1.6384-0.256-0.0512-0.512-0.1536-0.768-0.256-1.8432-0.512-3.7376-0.8704-5.7344-1.1776-0.4608-0.1024-0.9728-0.1536-1.4848-0.2048-1.8944-0.256-3.84-0.4608-5.8368-0.512-0.1536 0-0.3072-0.0512-0.4608-0.0512-2.1504-0.0512-4.3008 0-6.5536 0.1536l-1.6384 0.1536c-2.2528 0.2048-4.5568 0.4608-6.8608 0.9216-1.6384 0.3072-3.2256 0.6656-4.7616 1.0752-0.512 0.1024-0.9728 0.256-1.4336 0.4096-1.0752 0.3072-2.0992 0.5632-3.1232 0.9216-0.5632 0.2048-1.0752 0.4096-1.6384 0.5632-0.9216 0.3072-1.8432 0.6656-2.7136 1.024-0.5632 0.2048-1.0752 0.4608-1.6384 0.7168-0.8192 0.3584-1.6384 0.7168-2.4576 1.1264-0.512 0.256-1.024 0.512-1.536 0.8192-0.768 0.4096-1.536 0.8192-2.304 1.28-0.4608 0.3072-0.9728 0.5632-1.4336 0.8704-0.7168 0.4608-1.4336 0.9216-2.1504 1.4336-0.4096 0.3072-0.8704 0.6144-1.28 0.9216-0.7168 0.512-1.3824 1.0752-2.048 1.6384-0.3584 0.3072-0.7168 0.5632-1.0752 0.8704-0.768 0.6656-1.4848 1.3824-2.2016 2.048l-0.6144 0.6144c-0.8704 0.9216-1.7408 1.8944-2.5088 2.8672l-0.3072 0.4608c-0.6144 0.8192-1.2288 1.6896-1.792 2.56-0.2048 0.3072-0.4096 0.6656-0.6144 1.024-0.4096 0.7168-0.8192 1.3824-1.1776 2.0992-0.2048 0.4096-0.3584 0.8192-0.5632 1.1776-0.3072 0.6656-0.5632 1.3312-0.8192 1.9968-0.1536 0.4096-0.3072 0.8704-0.4096 1.28-0.2048 0.6656-0.4096 1.3312-0.5632 1.9968l-0.3072 1.3312c-0.1536 0.6656-0.2048 1.3824-0.3072 2.048-0.0512 0.4608-0.1024 0.8704-0.1024 1.3312 0 0.256-0.0512 0.4608-0.0512 0.7168-26.9824 4.9152-48.4352 7.0656-59.8016 7.3728l-8.9088 0.2048c-43.52 1.024-75.008 1.792-169.7792 30.5664-0.3584 0.1024-0.6656 0.2048-1.024 0.3584-64.6656 24.7296-119.3984 72.5504-158.8736 138.5472zM959.8976 285.1328c-9.472-5.8368-21.248-4.096-28.6208 4.1472l-54.6816 60.928c-10.24-6.2464-25.7024-15.7184-41.2672-25.8048a22.4 22.4 0 0 0-25.9584 0.9728 22.272 22.272 0 0 0-7.8336 24.7296c13.4144 42.4448 24.0128 118.9888 26.7264 139.5712-36.1984 60.16-83.9168 101.9904-142.0288 124.3136-31.7952 9.6768-56.064 15.9744-75.9808 20.1728 2.6112-1.6896 5.7344-3.6352 9.0624-5.632 25.0368-15.4624 50.9952-31.3856 43.3152-52.1216-4.8128-13.056-26.1632-26.5216-49.6128-31.3344-29.3376-5.9904-56.576 2.5088-76.8 23.9616-19.3536 20.48-25.6512 46.336-18.6368 74.24l-1.4336 0.0512c-14.9504 0.4096-42.7008 3.328-77.2096 10.3424-9.7792-4.7616-22.6816-6.3488-36.608-3.7888-17.8688 3.328-31.6416 12.4416-38.0416 23.808-44.1856 15.36-74.5984 33.792-90.368 54.8352-7.2704 9.6768-8.3456 22.9376-2.7648 33.792 9.472 18.3808 36.2496 63.4368 85.6576 100.1472-0.256 16.4352 14.1824 32.8192 36.8128 40.192 7.0144 2.304 14.1824 3.4304 20.992 3.4304 3.9424 0 7.7312-0.4096 11.3152-1.1776 2.7648-0.6144 5.2736-1.4848 7.68-2.5088 29.3888 9.7792 60.672 14.7456 93.6448 14.7456 12.6464 0 25.4976-0.768 38.6048-2.2016 6.4 34.048 26.88 57.7536 57.9072 66.0992 7.5264 2.048 14.9504 3.0208 22.272 3.0208 20.3776 0 39.6288-7.7824 55.7056-22.8352 17.4592-16.3328 28.5696-38.9632 25.856-52.6336-3.6864-18.3808-26.112-21.1968-50.7392-21.6064 73.8816-30.1056 131.3792-80.6912 171.4688-151.2448 41.3184-72.704 62.2592-167.2192 59.1872-266.4448l61.4912-156.7744c4.096-10.2912 0.3072-21.6064-9.1136-27.392z m-401.3056 304.9984c10.1376-10.752 22.3744-16.1792 36.4032-16.1792 1.1264 0 2.2016 0.0512 3.328 0.1024 13.4144 0.8192 25.0368 6.1952 31.3856 10.4448-6.8096 5.7344-19.6096 13.6192-26.5216 17.92-6.4 3.9424-11.9296 7.3728-15.872 10.2912-10.496 7.8848-18.432 18.1248-22.4768 28.5696l-1.792 0.1536c-1.6896 0.1536-3.3792 0.256-4.9664 0.4096l-2.6112 0.1536-5.0176 0.3072c-0.4096 0-0.768 0.0512-1.1776 0.0512-7.168-20.5312-4.0448-38.0416 9.3184-52.224z m-150.6304 89.9584c8.448-1.536 14.4896-0.2048 17.3568 1.1264l-0.3584 0.3584c-0.1536 0.1536-0.3072 0.256-0.4608 0.4096l-0.6144 0.4608c-0.2048 0.1536-0.4096 0.3072-0.6656 0.512-0.2048 0.1536-0.4608 0.3072-0.7168 0.4608-0.256 0.2048-0.512 0.3584-0.8192 0.5632-0.256 0.1536-0.512 0.3072-0.8192 0.4608-0.3584 0.2048-0.6656 0.4096-1.024 0.5632-0.256 0.1536-0.6144 0.3072-0.9216 0.4096-0.4096 0.2048-0.8192 0.4096-1.2288 0.5632-0.3072 0.1536-0.6656 0.256-1.024 0.4096-0.4608 0.2048-0.9216 0.3584-1.4336 0.5632-0.4096 0.1536-0.8192 0.256-1.2288 0.3584l-1.4848 0.4608a45.91104 45.91104 0 0 1-6.3488 1.1264c-0.256 0.0512-0.4608 0.0512-0.7168 0.0512l-2.2528 0.1536h-0.8192c-0.6656 0-1.3312 0-1.9456-0.0512-0.256 0-0.512-0.0512-0.768-0.0512l-1.6896-0.1536c-0.2048-0.0512-0.4608-0.0512-0.6656-0.1024-0.512-0.1024-1.024-0.1536-1.4848-0.256-0.2048-0.0512-0.3584-0.0512-0.512-0.1024-0.4608-0.1024-0.8704-0.2048-1.28-0.3584l-0.4608-0.1536c-0.3584-0.1024-0.6656-0.256-0.9728-0.3584-0.1024-0.0512-0.256-0.1024-0.4096-0.1536-0.0512 0-0.0512 0-0.0512-0.0512 2.2528-2.2016 7.3728-5.6832 15.8208-7.2192z m-4.7616 193.3824c-8.1408-2.6624-12.8-6.7584-14.6944-9.2672 0.512-0.1536 1.1264-0.3072 1.8432-0.4608 0.1024 0 0.1536-0.0512 0.256-0.0512 0.5632-0.1024 1.1776-0.1536 1.8432-0.2048 0.1024 0 0.2048 0 0.3584-0.0512 0.768-0.0512 1.6384-0.0512 2.5088-0.0512h0.3072c0.768 0.0512 1.5872 0.1024 2.4576 0.2048 0.3072 0.0512 0.6144 0.1024 0.9216 0.1024 0.768 0.1024 1.536 0.256 2.304 0.4096 0.3072 0.0512 0.6656 0.1536 0.9728 0.2048 1.1264 0.256 2.304 0.5632 3.4816 0.9728 1.0752 0.3584 2.048 0.7168 2.9696 1.1264 0.4096 0.1536 0.7168 0.3072 1.1264 0.512 0.512 0.256 1.0752 0.4608 1.536 0.7168 0.4096 0.2048 0.768 0.4096 1.1264 0.6144 0.4096 0.2048 0.8192 0.4096 1.1776 0.6656 0.3584 0.2048 0.7168 0.4608 1.0752 0.6656 0.3072 0.2048 0.6656 0.4096 0.9216 0.6144 0.3072 0.256 0.6144 0.4608 0.9216 0.6656l0.768 0.6144c0.256 0.2048 0.512 0.4608 0.768 0.6656 0.2048 0.2048 0.4096 0.3584 0.6144 0.5632l0.6144 0.6144c0.1536 0.1536 0.3072 0.3584 0.4608 0.512 0.1536 0.2048 0.3072 0.3584 0.4608 0.512 0.0512 0.1024 0.1024 0.1536 0.2048 0.256-2.9696 0.9728-9.1136 1.536-17.3056-1.1264z m210.3296 33.3824c8.5504 5.5808 19.4048 9.216 30.976 10.2912 4.864 0.4608 11.3664 0.4608 18.8928 0.4608 8.1408 0 23.1424 0 32 1.3312-3.2256 6.9632-10.2912 17.6128-21.2992 25.344-12.6976 8.8576-26.9312 11.264-42.2912 7.1168-22.7328-6.144-32.0512-23.7056-35.5328-40.96 1.28-0.256 2.5088-0.4608 3.7376-0.7168 4.4032-0.8192 8.8576-1.7408 13.5168-2.8672z m-0.1024-31.5392c-3.2768 0.8192-6.4512 1.536-9.5232 2.2528-3.2256 0.7168-6.5024 1.4336-9.8304 2.0992-51.3536 10.1376-98.9696 8.96-141.824-3.4816 0-1.0752-0.0512-2.1504-0.2048-3.1744a4.48 4.48 0 0 1-0.1024-0.8192c-0.1536-0.9216-0.3072-1.8944-0.512-2.816-0.1024-0.3584-0.1536-0.7168-0.256-1.0752-0.256-1.024-0.6144-1.9968-0.9728-3.0208-0.0512-0.2048-0.1536-0.4096-0.2048-0.5632-0.4608-1.1776-1.024-2.3552-1.6384-3.4816-0.1536-0.3072-0.3584-0.6144-0.512-0.9216-0.512-0.8704-1.0752-1.7408-1.6384-2.6112l-0.6656-0.9728c-0.8192-1.1264-1.6896-2.2016-2.6112-3.2768-6.656-7.4752-16.384-13.6192-27.392-17.2544-0.0512 0-0.1536-0.0512-0.2048-0.0512-1.7408-0.5632-3.4816-1.0752-5.2224-1.4848-0.512-0.1024-1.024-0.2048-1.536-0.3584-1.28-0.3072-2.56-0.5632-3.84-0.768-0.6144-0.1024-1.1776-0.1536-1.7408-0.256-1.1776-0.1536-2.3552-0.3072-3.5328-0.4096-0.5632-0.0512-1.1776-0.1024-1.7408-0.1024-1.1776-0.0512-2.3552-0.1024-3.4816-0.1024h-1.536c-1.3312 0.0512-2.6112 0.1536-3.9424 0.256-0.3072 0.0512-0.6144 0.0512-0.9216 0.1024-1.6384 0.2048-3.2256 0.4608-4.7616 0.8192-1.536 0.3584-2.9696 0.768-4.4032 1.2288-0.2048 0.1024-0.4608 0.1536-0.6656 0.256-1.2288 0.4608-2.4064 0.9216-3.584 1.4848-0.1024 0.0512-0.2048 0.0512-0.256 0.1024-43.52-32.7168-67.1232-72.448-75.52-88.7808-0.1536-0.3584-0.256-0.8192 0.0512-1.2288 11.0592-14.7456 34.4576-28.9792 68.0448-41.4208 0.2048 0.256 0.4608 0.512 0.7168 0.768a31.3344 31.3344 0 0 0 3.1744 3.1744c0.6656 0.6144 1.4336 1.1776 2.1504 1.6896 0.512 0.3584 0.9728 0.768 1.536 1.0752 0.8704 0.5632 1.792 1.0752 2.7136 1.5872 0.512 0.256 0.9216 0.5632 1.4336 0.8192 1.4848 0.7168 3.0208 1.3824 4.608 1.9968 2.0992 0.768 4.352 1.3312 6.6048 1.8432l1.4336 0.3072c2.2528 0.4096 4.5568 0.7168 6.912 0.8704 0.4096 0.0512 0.8192 0.0512 1.28 0.0512 1.0752 0.0512 2.0992 0.1024 3.1744 0.1024 0.9728 0 1.8944-0.1024 2.8672-0.1536 0.768-0.0512 1.536-0.0512 2.304-0.1024 2.56-0.2048 5.12-0.4608 7.68-0.9728 11.4176-2.0992 21.8624-6.912 29.44-13.4656 1.1264-0.9728 2.1504-1.9456 3.1232-2.9696 0.3072-0.3072 0.5632-0.6656 0.8704-0.9728 0.6656-0.7168 1.28-1.4336 1.8432-2.2016 0.3072-0.3584 0.5632-0.768 0.8192-1.1264 0.512-0.768 1.024-1.536 1.4848-2.304 0.2048-0.3584 0.4608-0.7168 0.6656-1.0752 0.512-0.9728 1.024-1.9456 1.4336-2.9696 0.0512-0.1536 0.1536-0.3072 0.2048-0.512 0.4608-1.1776 0.8704-2.3552 1.1776-3.5328 0.1024-0.3584 0.1536-0.6656 0.2048-1.024 0.2048-0.8704 0.3584-1.7408 0.4608-2.6112 0.0512-0.4096 0.1024-0.8704 0.1024-1.28 0.0512-0.3584 0.1024-0.768 0.1024-1.1264 26.9824-4.9152 48.4352-7.0656 59.8016-7.3728l8.9088-0.2048c43.52-1.024 75.008-1.792 169.7792-30.5664 0.3584-0.1024 0.6656-0.2048 1.024-0.3584 64.3072-24.576 119.0912-72.3968 158.5664-138.4448l4.9664-2.7648 16.7936-9.2672c-1.1776 100.608-30.72 325.376-263.68 382.9248z m266.3936-419.4816l-23.3984 12.9536c-3.7888-26.5216-10.8544-71.424-19.7632-107.1104 12.3904 7.7824 23.3472 14.4384 29.9008 18.3808a22.6304 22.6304 0 0 0 28.416-4.2496l28.9792-32.3072-44.1344 112.3328z" fill="#333B44" /><path d="M782.6944 683.008a15.36 15.36 0 0 0-17.3056 0.0512c-18.2272 12.544-71.424 45.6192-98.304 48.3328-27.0336 2.7136-48.7424 17.0496-67.8912 29.696-9.8816 6.5024-19.2 12.6976-27.6992 16.128-18.3296 7.424-54.3232 10.8032-66.6112 11.4688-6.0928 0.3072-11.3664 4.1984-13.5168 9.8816-2.1504 5.6832-0.768 12.0832 3.584 16.384 0.5632 0.512 39.168 37.632 101.632 37.632 25.6 0 55.1936-6.1952 87.808-23.7056 0.256-0.1024 0.4608-0.256 0.6656-0.4096 85.5552-51.7632 103.3216-126.208 104.0384-129.3312 1.3824-6.1952-1.1264-12.5952-6.4-16.128z m-113.2032 118.9376c-50.4832 26.9824-91.0848 22.2208-117.76 12.0832 11.1104-1.9968 22.3744-4.7104 31.3344-8.3456 11.3664-4.608 21.9136-11.5712 33.1264-18.9952 16.9472-11.2128 34.5088-22.8352 53.9648-24.7296 19.9168-1.9968 46.5408-14.2848 68.9152-26.6752-13.4144 20.7872-35.1232 45.7728-69.5808 66.6624z" fill="#333B44" /></svg>