<svg class="svg-icon" style="width: 1em;height: 1em;vertical-align: middle;fill: currentColor;overflow: hidden;" viewBox="0 0 1024 1024" version="1.1" xmlns="http://www.w3.org/2000/svg"><path d="M137.5744 168.1408s23.552 60.1088 83.6608 16.9984 308.5312-132.0448 528.128 105.8816 118.9376 483.6864 87.6032 526.7968c-31.3856 43.1616 11.776 79.7184 35.2768 83.6608-47.0528 26.1632-151.6544 11.776-129.4336-60.1088s147.712-258.816-96.7168-461.4656-359.4752-158.208-436.5824-100.6592-125.4912-47.0528-71.936-111.104z" fill="#FF7443" /><path d="M760.8832 185.2928l85.8112 81.7664c9.5744 9.1648 25.3952 5.4272 29.9008-7.0656l46.3872-128.512c5.2736-14.5408-8.7552-28.672-23.3472-23.552l-132.1984 46.7456c-12.9024 4.608-16.4864 21.1968-6.5536 30.6176zM184.2176 826.9312c12.6464-1.9968 23.3984 9.2672 20.8384 21.8112l-15.0016 73.0112c-0.5632 2.816 2.4064 5.0176 4.9664 3.6352l113.0496-62.1056a18.4064 18.4064 0 0 0 9.5232-16.7936L313.3952 742.4c-0.3584-9.3184-7.68-16.896-16.9984-17.5616l-102.7072-7.3728a18.432 18.432 0 0 0-16.7424 8.3456l-69.9904 108.4416c-1.5872 2.4576 0.512 5.6832 3.4304 5.1712l73.8304-12.4928z" fill="#F2B655" /><path d="M836.096 278.1696a33.60768 33.60768 0 0 0 23.1936 9.3184c2.56 0 5.1712-0.3072 7.7824-0.9216a33.59232 33.59232 0 0 0 23.9616-21.3504l46.3872-128.512c4.4544-12.3904 1.4848-25.856-7.7824-35.2256a33.45408 33.45408 0 0 0-35.1744-8.0384l-132.1984 46.7456a33.45408 33.45408 0 0 0-21.7088 24.7296c-2.4576 11.5712 1.1776 23.296 9.728 31.4368l32.9728 31.4368-37.8368 36.864C518.2464 34.6112 268.0832 132.608 212.3264 172.6464c-15.0016 10.8032-27.904 14.6944-38.2976 11.7248-14.6432-4.2496-21.9136-21.4528-22.1184-21.9136a15.31392 15.31392 0 0 0-26.0096-4.1472c-37.6832 45.056-31.3344 104.3456-3.7888 133.4784 11.5712 12.2368 28.9792 20.8384 50.0736 19.1488l120.2176 398.2336-97.536-7.0144c-12.2368-0.9216-24.0128 5.0176-30.72 15.36l-69.9904 108.4416c-4.0448 6.2464-3.9936 14.2848 0.1024 20.48s11.4176 9.3696 18.7904 8.192l73.728-12.4416c1.28-0.2048 2.0992 0.3584 2.56 0.8704 0.512 0.512 1.024 1.3824 0.768 2.6624l-15.0016 73.0112c-1.4848 7.1168 1.3824 14.5408 7.2192 18.8416 3.2768 2.4064 7.2192 3.6352 11.1104 3.6352 3.1232 0 6.1952-0.768 9.0112-2.304l113.0496-62.1056a33.536 33.536 0 0 0 17.4592-30.8736l-3.9936-101.4272 395.6224 116.736c0.256 18.2272 7.9872 34.2016 22.8352 46.2336 18.5856 15.0528 45.0048 21.6576 70.912 21.6576 22.8352 0 45.312-5.12 61.4912-14.1312 5.7344-3.1744 8.8064-9.6256 7.68-16.0256s-6.1952-11.4688-12.5952-12.544c-8.9088-1.4848-25.1392-11.8272-31.232-26.6752-4.352-10.7008-2.4576-21.4528 5.8368-32.8192 35.9936-49.5104 132.9152-299.6736-82.8416-539.7504l39.0144-37.9904 30.4128 28.9792z m-94.6176 523.776c-4.4032 10.8032-8.2944 20.3264-11.264 28.8768l-388.7104-114.688 305.664-315.2384c190.8224 165.632 128.256 318.3104 94.3104 401.0496z m-421.5808-107.7248L201.5744 302.1824c5.5808-2.816 11.264-6.2976 17.1008-10.6496 75.8272-56.5248 183.1424-89.4976 404.7872 89.6512l-303.5648 313.0368z m-19.2512 155.648l-90.3168 49.6128 9.7792-47.616a33.76128 33.76128 0 0 0-33.024-40.4992c-1.7408 0-3.5328 0.1536-5.2736 0.4096h-0.1536l-47.0528 7.936 55.2448-85.6064a3.072 3.072 0 0 1 2.7136-1.3824l102.7072 7.3728c1.536 0.1024 2.7136 1.3312 2.7648 2.8672l4.1472 104.1408c0.0512 1.1264-0.512 2.2016-1.536 2.7648z m523.8784-41.1136c-14.4384 19.8656-17.7664 42.0864-9.4208 62.5152 4.1472 10.1376 10.752 18.944 18.3808 26.0608-23.7056 2.9696-50.944-0.9216-66.8672-13.824-11.1616-9.0624-14.1824-21.4016-9.1136-37.632 2.6624-8.6528 7.168-19.6096 12.3392-32.256 34.8672-85.0432 107.4688-261.9904-113.9712-445.5424-138.4448-114.7392-237.6192-152.9344-313.344-152.9344-59.2384 0-104.1408 23.3984-142.2848 51.8144-22.4768 16.7936-42.3936 18.0736-55.9616 3.7376-15.1552-16.0256-19.5584-46.7968-6.5536-74.496 6.5536 7.168 15.5648 14.1312 27.3408 17.6128 20.0192 5.9392 41.8816 0.4608 65.0752-16.1792 52.3776-37.5808 292.0448-130.048 507.904 103.8336 209.4592 226.816 119.8592 461.4144 86.4768 507.2896zM770.6112 171.4176a2.7648 2.7648 0 0 1 1.9456-2.2016l132.1984-46.7456c1.1776-0.4096 2.2528-0.1536 3.1232 0.7168 0.8704 0.8704 1.1264 1.9456 0.6656 3.1232l-46.3872 128.512a2.7648 2.7648 0 0 1-2.1504 1.8944 2.9696 2.9696 0 0 1-2.7648-0.768l-37.12-35.3792c-0.7168-1.5872-1.6384-3.072-2.9184-4.352-1.5872-1.5872-3.4304-2.7648-5.376-3.5328l-40.3968-38.5024a2.90816 2.90816 0 0 1-0.8192-2.7648z" fill="#333B44" /></svg>