<svg class="svg-icon" style="width: 1em;height: 1em;vertical-align: middle;fill: currentColor;overflow: hidden;" viewBox="0 0 1024 1024" version="1.1" xmlns="http://www.w3.org/2000/svg"><path d="M433.8176 254.9248c5.6832-3.7888 13.8752-0.512 14.848 5.7856 2.7648 18.1248 16.2816 48.9472 76.3904 48.9472 60.5696 0 73.1136-31.3344 75.3152-49.408 0.768-6.2976 8.8576-9.6768 14.6432-6.0928 13.568 8.3456 31.0784 26.6752 26.2656 64.9216-2.0992 20.0192-26.3168 46.848-116.9408 46.848s-112.7936-27.4944-117.6064-50.6368c-4.0448-19.3536 4.9664-45.6704 27.0848-60.3648z" fill="#F7E9CF" /><path d="M631.7056 338.5344c-13.824 14.5408-44.6976 27.392-107.3664 27.392-70.912 0-99.8912-16.8448-111.4624-35.2256-22.6816 18.7904-66.9184 69.888-52.8384 175.872 18.688 140.5952 124.416 196.864 163.9424 196.864 39.5264 0 160.9216-72.192 160.9216-190.7712-0.0512-96.9728-19.456-145.3568-53.1968-174.1312z" fill="#FF8431" /><path d="M365.1072 407.4496c-45.568-8.1408-143.36-32.7168-144.1792-93.0816 1.024-15.9232 15.5648-30.0032 43.5712-36.5568 26.5728-6.2464 112.896-4.864 151.8592-97.4848 2.4064-5.7344-4.1984-11.2128-10.2912-8.5504-59.4944 25.7536-87.9616 21.9648-91.7504 14.1824-4.0448-8.192-33.6384-26.1632 90.0096-104.8576 3.7888-2.4064 2.304-7.7312-2.304-8.1408-45.4656-3.9424-197.8368-8.2432-255.8464 103.6288C80.6912 303.0016 195.6352 446.5152 358.4 443.9552c1.28-13.4656 3.6352-25.6 6.7072-36.5056zM897.1264 176.5888c-57.9584-111.872-210.3808-107.5712-255.8464-103.6288-4.608 0.4096-6.0416 5.7344-2.304 8.1408 123.648 78.6944 94.0544 96.6144 90.0096 104.8576-3.84 7.7824-32.256 11.5712-91.7504-14.1824-6.0928-2.6624-12.6976 2.8672-10.2912 8.5504 38.912 92.6208 125.2864 91.2896 151.8592 97.4848 28.0064 6.5536 42.5472 20.6336 43.5712 36.5568-0.8192 62.6176-105.9328 86.6816-148.992 93.9008 2.9696 10.6496 5.4272 22.4768 7.2704 35.6352 165.0176 5.1712 282.5728-139.776 216.4736-267.3152zM667.648 761.2416c-20.4288-34.304-36.3008-62.8736-70.5024-90.4704-28.8256 21.1968-57.4976 32.6144-73.1648 32.6144-8.7552 0-20.8384-2.816-34.4576-8.6528 7.7824 10.1376 18.0736 21.8112 31.6416 33.6384 30.7712 26.9312 61.696 61.9008 58.7776 101.5808-1.5872 21.8112-16.128 41.0624-37.888 50.5856-40.448 17.664-108.8 25.2416-125.0816-35.9424-24.6784-16.2304-62.0544-45.0048-31.6416-92.5184-60.8768-6.2464-119.808 36.2496-118.6816 101.2224 1.0752 64.9728 114.5344 131.2256 290.304 94.976 92.4672-23.8592 144.2304-83.4048 119.8592-166.656-2.2016-7.0144-5.3248-13.8752-9.1648-20.3776z" fill="#FF8431" /><path d="M902.0416 349.3888c35.5328-56.4224 38.7072-122.0096 8.704-179.8656-62.3104-120.2688-223.0272-116.0192-270.7968-111.8208-8.704 0.768-15.872 6.8096-17.92 15.104-1.9968 8.1408 1.4848 16.6912 8.704 21.2992 78.0288 49.664 87.6544 71.0656 88.7296 76.4416 0.256 1.3824 0.3072 1.536-1.5872 4.2496-0.256 0.3584-0.512 0.7168-0.768 1.1264-6.7072 1.536-29.696 0.8192-73.7792-18.2272a23.1936 23.1936 0 0 0-25.7024 4.7616c-6.3488 6.2976-8.2944 15.6672-4.8128 23.8592 36.864 87.6544 112.8448 98.9184 149.4016 104.2944 5.376 0.8192 10.0352 1.4848 13.1072 2.2016 18.6368 4.352 30.72 12.8 31.744 22.0672-1.3824 45.9264-82.944 67.8912-123.1872 75.9296-7.7312-21.8112-18.2784-39.5776-31.8464-54.016 2.7648-5.632 4.096-11.0592 4.5568-15.7696 6.0416-47.9232-18.3808-70.656-33.4848-79.9232-7.3728-4.5568-16.5376-4.9664-24.4224-1.1776-7.4752 3.6352-12.544 10.5472-13.5168 18.5344-3.6352 29.696-34.6624 35.8912-60.1088 35.8912-25.3952 0-56.6784-6.2464-61.184-35.8912-1.2288-8.0384-6.5536-14.848-14.1824-18.2272-8.0384-3.5328-17.1008-2.816-24.32 1.9456-28.672 18.944-38.6048 52.736-33.6896 76.288 0.6144 2.9696 1.4848 5.7856 2.4576 8.5504-12.4928 12.3904-28.3648 32.6144-39.3216 62.7712-39.0656-8.2944-117.1456-30.4128-118.4768-74.9568 1.024-9.2672 13.1072-17.7152 31.744-22.0672 3.072-0.7168 7.7312-1.4336 13.1072-2.2016C317.7472 285.184 393.728 273.92 430.592 186.2656c3.4304-8.192 1.536-17.5616-4.8128-23.8592a23.21408 23.21408 0 0 0-25.7024-4.7616c-44.0832 19.0976-67.1232 19.7632-73.7792 18.2272-0.256-0.4096-0.512-0.768-0.768-1.1264-1.8944-2.7136-1.8432-2.8672-1.5872-4.2496 1.0752-5.376 10.7008-26.7776 88.7296-76.4416 7.168-4.5568 10.7008-13.1072 8.704-21.2992-2.048-8.2944-9.216-14.336-17.92-15.104-47.7696-4.1472-208.4864-8.3968-270.7968 111.8208-29.696 57.344-26.88 122.368 7.8336 178.4832 32.4096 52.3776 87.2448 89.344 150.9376 104.1408-60.3136 3.9424-96.9728-0.4096-109.056-13.0048a15.31392 15.31392 0 0 0-21.7088-0.4608 15.31392 15.31392 0 0 0-0.4608 21.7088c15.5136 16.2304 44.1856 24.064 92.5696 24.064 24.4736 0 54.0672-1.9968 89.5488-5.9904 0.3584 9.5744 1.1776 19.6096 2.6112 30.1568 0.1536 1.024 0.3072 1.9456 0.4608 2.9696-52.3264 23.8592-127.488 25.6-146.8416 15.6672a15.34976 15.34976 0 1 0-14.08 27.2896c11.9808 6.144 31.7952 9.2672 54.9888 9.2672 34.816 0 77.2096-7.0656 111.9232-21.4016 2.6624 10.7008 5.7856 20.8896 9.3696 30.5152-59.6992 24.2176-113.6128 36.9664-131.3792 30.5664-7.9872-2.8672-16.7936 1.2288-19.6608 9.216s1.2288 16.7936 9.216 19.6608c6.4 2.304 14.1312 3.328 22.784 3.328 40.2432 0 99.7888-21.76 131.4816-34.6624 6.5536 12.7488 13.824 24.3712 21.6576 34.8672-77.568 30.3616-127.232 36.864-141.2608 29.3888a15.3856 15.3856 0 0 0-20.7872 6.3488 15.3856 15.3856 0 0 0 6.3488 20.7872c8.1408 4.352 18.944 6.144 31.3856 6.144 44.2368 0 108.5952-23.1424 145.3056-37.9392 20.9408 21.5552 43.4688 36.7104 63.6416 46.1312 9.2672 11.776 19.8656 22.9888 31.5904 33.28 38.5536 33.7408 55.552 62.0032 53.6064 88.9344-1.1776 15.9744-12.1856 30.3616-28.7232 37.632-22.1696 9.6768-56.3712 16.9472-79.9744 5.5808-12.1856-5.888-20.0704-16.128-24.1152-31.3856-0.9728-3.6352-3.2256-6.8096-6.4-8.9088-37.376-24.576-44.7488-43.9296-27.136-71.3728 2.8672-4.5056 3.2256-10.1376 0.9216-14.9504a15.2576 15.2576 0 0 0-12.288-8.6016c-36.864-3.7888-73.0624 7.8848-99.3792 32.0512-23.9104 21.9648-36.8128 52.0704-36.2496 84.736 0.4096 25.7024 14.7968 51.2 40.3968 71.7312 39.8848 31.9488 99.6864 48.64 168.8064 48.64 31.5392 0 65.0752-3.4816 99.5328-10.5984 0.256-0.0512 0.512-0.1024 0.7168-0.1536 57.9584-14.9504 99.9424-42.9056 121.4464-80.7936 17.3056-30.464 20.48-66.7648 9.2672-105.0624-2.3552-8.1408-5.9392-16.2304-10.5984-24.064l-3.5328-5.9392c-16.4864-27.7504-31.1296-52.3264-56.2688-76.0832 3.5328-3.0208 7.0144-6.144 10.4448-9.472 49.5104 18.5856 96.4096 28.5184 130.9696 28.5184 17.5104 0 31.8976-2.56 41.8304-7.8336a15.37024 15.37024 0 0 0-14.4384-27.136c-14.7456 7.8336-65.4848 6.5024-135.936-18.1248a224.9216 224.9216 0 0 0 22.9888-34.6624c33.8432 11.2128 82.7392 23.9104 118.7328 23.9104 11.1104 0 20.992-1.2288 28.8256-4.0448a15.34464 15.34464 0 0 0 9.216-19.6608 15.32416 15.32416 0 0 0-19.6608-9.216c-18.4832 6.656-71.3216-1.6896-124.6208-19.2 3.4816-9.8304 6.2464-20.0704 8.0896-30.72 27.5968 9.4208 58.9824 13.4656 87.4496 13.4656 31.3856 0 59.136-4.8128 74.0352-12.4928a15.36 15.36 0 0 0 6.6048-20.6848 15.36 15.36 0 0 0-20.6848-6.6048c-18.2784 9.4208-91.0336 16.128-144.6912-5.2736 0-11.8784-0.3072-23.1424-0.9216-33.8944 23.6544 2.56 45.5168 3.8912 65.4336 3.8912 57.5488 0 98.56-10.7008 118.4768-31.5392a15.36 15.36 0 0 0-0.4608-21.7088 15.36 15.36 0 0 0-21.7088 0.4608c-12.0832 12.6464-45.568 23.1424-105.216 21.9648 61.3888-15.2576 114.2272-51.2 146.176-101.9392zM435.7632 272.9472c6.3488 20.8384 26.4192 52.0704 89.2928 52.0704 63.4368 0 82.7392-31.6416 88.576-52.7872 10.752 9.984 14.8992 25.088 12.3904 45.2096-0.3584 3.3792-2.048 6.8608-5.12 10.24-0.1024 0.1024-0.2048 0.1536-0.3072 0.256-4.7616 5.0176-15.0016 12.032-36.096 16.9472-1.28 0.3072-2.5088 0.6144-3.84 0.8704-1.024 0.2048-2.1504 0.4096-3.2256 0.6144-1.792 0.3072-3.584 0.6656-5.4784 0.9728l-3.1232 0.4608c-2.0992 0.3072-4.3008 0.5632-6.5024 0.8192-1.024 0.1024-2.0992 0.256-3.1744 0.3584-2.4064 0.256-4.9152 0.4608-7.424 0.6656-1.0752 0.1024-2.0992 0.1536-3.2256 0.256-2.7648 0.1536-5.632 0.3072-8.5504 0.4096l-3.0208 0.1536c-4.0448 0.1024-8.192 0.2048-12.544 0.2048-3.0208 0-5.9392-0.0512-8.8576-0.1024l-4.4032-0.1536-4.0448-0.1536c-2.048-0.1024-4.0448-0.2048-6.0928-0.3584l-2.0992-0.1536-7.4752-0.6144c-0.1536 0-0.3584-0.0512-0.512-0.0512-33.3312-3.3792-64.2048-13.056-69.1712-36.864-2.3552-11.3152 1.9456-27.6992 14.0288-39.2704z m-269.2096 58.88c-28.8768-46.6432-31.3344-100.6592-6.7072-148.1728 43.3152-83.6096 146.2272-96.8192 206.6432-96.8192h1.4336c-59.5456 41.2672-71.2192 63.0272-74.1376 77.6192-2.9184 14.336 3.6352 23.808 6.4512 27.8528 0.2048 0.3072 0.4096 0.5632 0.5632 0.8192 9.5744 18.5856 43.2128 18.6368 91.7504 0.7168-31.9488 54.016-83.6608 61.6448-115.8656 66.4064-6.0416 0.8704-11.264 1.6896-15.616 2.6624-33.6384 7.8848-53.8624 26.3168-55.3984 50.5344 0 0.4096-0.0512 0.8192-0.0512 1.1776 0.8192 63.6416 82.432 92.416 140.8512 104.9088-0.6144 2.9696-1.1264 5.9904-1.5872 9.0112-75.2128-2.8672-142.6944-39.168-178.3296-96.7168z m208.6912 172.6976c-11.0592-83.2512 16.3328-129.5872 36.5568-151.6544 19.4048 17.2032 51.456 26.4192 97.1264 28.1088 0.6656 0.0512 1.3312 0.0512 2.048 0.0512 4.352 0.1536 8.7552 0.2048 13.3632 0.2048 3.2256 0 6.3488-0.0512 9.472-0.1024 1.1264 0 2.2528-0.0512 3.328-0.1024 1.8944-0.0512 3.84-0.1024 5.6832-0.2048 1.3824-0.0512 2.7136-0.1536 4.0448-0.2048 1.4848-0.1024 3.0208-0.1536 4.5056-0.256 1.536-0.1024 3.0208-0.2048 4.5568-0.3584l3.5328-0.3072c1.7408-0.1536 3.3792-0.3072 5.0688-0.512 0.8192-0.1024 1.6896-0.2048 2.5088-0.256 1.9456-0.2048 3.84-0.4608 5.6832-0.7168 0.4608-0.0512 0.9216-0.1024 1.3824-0.2048 2.2528-0.3072 4.4032-0.6656 6.5536-1.024h0.0512c22.8864-3.9936 39.0656-10.3424 50.432-17.7664 13.2096 14.6432 22.8352 33.9968 29.1328 59.0848 0 0.0512 0 0.0512 0.0512 0.1024 1.536 6.0928 2.8672 12.4928 3.9936 19.2512l0.6144 3.84c3.1744 20.4288 4.7616 43.9808 4.7616 71.1168 0 95.2832-87.296 157.4912-129.8944 172.0832-0.7168 0.256-1.4336 0.4608-2.1504 0.7168-0.256 0.1024-0.512 0.1536-0.8192 0.256-3.072 0.9216-5.8368 1.5872-8.1408 1.9456-0.1536 0.0512-0.3584 0.0512-0.512 0.1024-0.5632 0.1024-1.1264 0.1536-1.6384 0.2048-0.8704 0.1024-1.6896 0.1536-2.4576 0.1536-0.7168 0-1.536-0.0512-2.304-0.1024-4.5056-0.3072-13.1584-1.7408-26.112-7.3216-0.8192-0.3584-1.6384-0.6144-2.4576-0.8192-43.3152-19.5584-104.6528-74.8544-117.9648-175.3088z m275.6096 258.6112l3.584 5.9904c3.328 5.632 5.888 11.3152 7.5264 16.9472 8.96 30.5664 6.7584 57.856-6.5024 81.2544-17.2544 30.4128-52.5824 53.2992-102.0928 66.0992-118.8352 24.4224-203.2128-0.512-242.5856-32.0512-18.3808-14.6944-28.6208-31.8464-28.928-48.2304-0.512-30.5152 14.0288-50.3296 26.3168-61.5936 14.2336-13.056 33.024-21.4016 52.8896-23.8592-9.216 31.3856 5.0688 60.416 42.5984 86.6304 6.912 20.8896 20.224 36.5056 38.7584 45.4144 32.9728 15.9232 76.1856 7.7824 105.6256-5.0688 27.0336-11.8272 45.1072-36.1472 47.104-63.5392 3.5328-48.2816-33.6384-87.4496-62.6176-113.0496 0.1024 0 0.2048-0.0512 0.3584-0.0512 17.2544-2.6112 40.0896-12.2368 63.3344-27.8016 24.3712 21.9136 37.9392 44.7488 54.6304 72.9088z m42.9568-334.4896c-0.512-2.7648-1.024-5.5296-1.5872-8.192 60.3136-12.1344 144.6912-40.7552 145.5616-105.8816 0-0.4096 0-0.8192-0.0512-1.1776-1.5872-24.2176-21.76-42.6496-55.3984-50.5344-4.352-1.024-9.5744-1.792-15.616-2.6624-32.2048-4.7616-83.9168-12.3904-115.8656-66.4064 48.5376 17.92 82.2272 17.8688 91.7504-0.7168 0.1536-0.256 0.3584-0.512 0.5632-0.8192 2.7648-4.0448 9.3184-13.4656 6.4512-27.8528-2.9696-14.592-14.5408-36.352-74.1376-77.6192h1.4336c60.416 0 163.2768 13.2096 206.6432 96.8192 24.832 47.9744 22.1696 102.4-7.424 149.3504-36.7616 58.368-105.8304 94.3104-182.3232 95.6928z" fill="#333B44" /></svg>