<svg class="svg-icon" style="width: 1em;height: 1em;vertical-align: middle;fill: currentColor;overflow: hidden;" viewBox="0 0 1024 1024" version="1.1" xmlns="http://www.w3.org/2000/svg"><path d="M798.8224 477.184c-14.7968 6.2976-29.184 11.7248-42.5984 16.3328-64.8192-32.8704-54.4768-152.2176-54.4768-152.2176s6.2464-0.8192 15.9232-2.9696c-53.1456-37.4784-133.3248-36.5056-133.3248-36.5056H435.1488s-79.2576-0.9728-132.4032 35.8912c11.264 2.6112 18.7392 3.584 18.7392 3.584s10.3424 119.3472-54.4768 152.2176c-13.312-4.5056-27.5968-9.9328-42.24-16.1792l-100.5568-3.584s0 124.9792 139.0592 76.1344c19.3536 58.7776 53.6576 153.9584 100.2496 220.16 23.2448-41.3184 87.6032-44.4928 87.6032-44.4928h119.3472s62.5152-7.3216 84.5824 45.7728c47.104-66.2528 81.7152-162.304 101.2224-221.4912 139.0592 48.8448 139.0592-76.1344 139.0592-76.1344l-96.512 3.4816z" fill="#F7A152" /><path d="M718.7456 115.4048c-4.608-0.7168-6.8096 5.5296-2.6624 7.7312 39.8848 20.9408 117.6576 69.3248 113.4592 126.0544-5.632 76.1344-127.7952 92.1088-127.7952 92.1088s-10.3424 119.3472 54.4768 152.2176c85.504-29.1328 212.3776-93.952 212.3776-190.72 0-91.392-108.8512-165.1712-249.856-187.392zM304.4864 115.4048c4.608-0.7168 6.8096 5.5296 2.6624 7.7312-39.936 20.9408-117.7088 69.3248-113.4592 126.0544 5.632 76.1344 127.7952 92.1088 127.7952 92.1088s10.3424 119.3472-54.4768 152.2176c-85.504-29.1328-212.3776-93.952-212.3776-190.72-0.0512-91.392 108.8-165.1712 249.856-187.392z" fill="#F7E9CF" /><path d="M302.2848 535.1936c-2.9696 1.3312-6.2976-1.024-6.144-4.3008 0.7168-16.7936 5.9392-54.272 38.4512-38.0416 41.3184 20.6848 92.1088 66.7136 119.3472 59.1872 12.8-3.5328 21.9136-10.6496 27.904-17.2032 3.072-3.328 8.5504-0.5632 7.6288 3.84-5.6832 27.1872-27.136 74.4448-108.4416 60.3648-0.256-0.0512-0.5632-0.1024-0.8192-0.2048-39.0144-13.6704-47.104-28.2112-47.5136-57.9584 0-1.536-0.768-2.9696-2.0992-3.7888-5.8368-3.584-14.848-7.8848-28.3136-1.8944zM720.9984 535.1936c2.9696 1.3312 6.2976-1.024 6.144-4.3008-0.7168-16.7936-5.9392-54.272-38.4512-38.0416-41.3184 20.6848-92.1088 66.7136-119.3472 59.1872-12.8-3.5328-21.9136-10.6496-27.904-17.2032-3.072-3.328-8.5504-0.5632-7.6288 3.84 5.6832 27.1872 27.136 74.4448 108.4416 60.3648 0.256-0.0512 0.5632-0.1024 0.8192-0.2048 39.0144-13.6704 47.104-28.2112 47.5136-57.9584 0-1.536 0.768-2.9696 2.0992-3.7888 5.888-3.584 14.8992-7.8848 28.3136-1.8944z" fill="#FFFFFF" /><path d="M451.1232 725.5552h119.3472s88.32-10.3424 92.1088 82.688c1.8944 62.976-106.0352 87.3984-150.272 43.2128-38.6048 42.2912-156.6208 35.0208-156.9792-47.9232-0.3584-73.2672 95.7952-77.9776 95.7952-77.9776z" fill="#E8D7BB" /><path d="M512.256 851.5072c-19.7632 21.6064-60.2624 30.2592-95.1808 22.4768 13.6192 22.5792 41.728 52.736 95.1808 52.736 60.4672 0 85.6576-36.2496 95.232-57.4464-32.8192 9.472-72.448 4.9152-95.232-17.7664z" fill="#D8C29E" /><path d="M983.9616 302.7456c0-96.3584-105.6256-177.7664-262.8096-202.496-9.472-1.4848-18.5856 4.0448-21.6064 13.1584-3.0208 9.0624 0.9728 18.8928 9.4208 23.3472 68.4032 35.9424 107.776 77.568 105.2672 111.36-3.3792 45.4656-61.44 65.8944-93.5424 73.7792-56.2176-35.8912-133.12-35.3792-136.2944-35.3792h-148.992c-3.2768 0-79.3088-0.512-135.424 34.7136-32.5632-8.3456-87.6544-28.8768-90.9312-73.1136-2.5088-33.7408 36.864-75.3664 105.2672-111.36a19.33312 19.33312 0 0 0 9.4208-23.3472 19.48672 19.48672 0 0 0-21.6064-13.1584C144.8448 124.9792 39.2192 206.3872 39.2192 302.7456c0 69.9392 57.856 121.9584 116.4288 156.7744l-31.0272-1.0752c-4.1984-0.0512-8.192 1.3824-11.2128 4.3008-3.0208 2.9184-4.7104 6.8608-4.7104 11.0592 0 2.3552 0.4608 57.7024 41.1136 86.528 25.7024 18.2272 60.5184 21.1968 103.5776 8.8576 29.7984 87.9104 60.16 154.3168 92.416 202.3424-3.7888 9.3696-5.9904 20.0192-5.9392 32.1536 0.1536 37.12 20.8896 66.4064 56.8832 80.2816 3.4816 1.3312 7.0656 2.5088 10.6496 3.4816 15.2064 22.5792 46.9504 54.6304 104.8064 54.6304 64.768 0 94.3616-38.0928 106.0864-60.16 2.7648-0.9728 5.4784-1.9968 8.1408-3.1232 33.0752-14.2848 52.3264-40.8576 51.4048-71.1168-0.512-12.4416-2.4064-23.808-5.6832-34.0992 32.768-48.1792 63.5904-115.2 93.8496-204.4416 43.0592 12.3392 77.8752 9.3696 103.5776-8.8576 40.6528-28.7744 41.1136-84.1728 41.1136-86.528 0-4.1472-1.6896-8.1408-4.7104-11.0592-2.9696-2.9184-6.9632-4.352-11.2128-4.3008l-27.0848 0.9728c58.5728-34.816 116.2752-86.784 116.2752-156.6208z m-914.0224 0c0-66.816 68.9664-127.5392 173.9776-158.208-36.1984 27.2384-68.7104 63.744-65.5872 105.7792 5.376 72.3456 94.3616 97.1264 128.3072 103.9872 0.1536 8.4992-0.0512 20.8384-1.4336 34.6624-0.0512 0.6656-0.1536 1.3824-0.2048 2.048l-0.4608 3.584c-4.1472 31.3856-14.848 65.9968-39.168 82.0736-0.1024-0.0512-0.256-0.1024-0.4096-0.1536-4.9664-1.7408-9.9328-3.6352-14.8992-5.5296-1.5872-0.6144-3.2256-1.28-4.9152-1.9456-3.84-1.536-7.6288-3.072-11.4176-4.6592-63.7952-26.7264-163.7888-81.4592-163.7888-161.6384z m382.8736 589.2096c8.3968-0.5632 16.64-1.9968 24.5248-4.0448 0.1024 0 0.1536-0.0512 0.256-0.0512 2.4064-0.6144 4.7616-1.3312 7.0656-2.0992 0.4096-0.1536 0.8192-0.3072 1.28-0.4096 2.0992-0.7168 4.1472-1.4848 6.144-2.304 0.6144-0.256 1.28-0.5632 1.8944-0.8192 1.792-0.768 3.6352-1.5872 5.3248-2.4576 0.8192-0.4096 1.5872-0.8704 2.4064-1.28 1.536-0.8192 3.072-1.6384 4.5056-2.5088 1.3824-0.8192 2.6624-1.7408 3.9424-2.6112 0.8192-0.5632 1.6896-1.0752 2.4576-1.6384 17.9712 12.4928 40.2944 17.7664 62.3616 17.6128-13.2608 12.4416-33.0752 22.016-62.6688 22.016-26.3168-0.0512-45.568-8.3968-59.4944-19.4048z m161.4848-41.3696c-3.4304 1.4848-7.1168 2.7648-10.9056 3.8912-0.0512 0-0.1024 0-0.1536 0.0512-0.8704 0.256-1.7408 0.4608-2.56 0.6656-10.5984 2.7136-22.2208 3.8912-33.4848 3.072l-1.8432-0.1536c-1.0752-0.1024-2.1504-0.2048-3.1744-0.3584-1.1776-0.1536-2.3552-0.3072-3.5328-0.512l-0.9216-0.1536c-8.5504-1.536-16.5376-4.2496-23.296-8.0896-0.0512-0.0512-0.1024-0.0512-0.1536-0.1024-1.1776-0.6656-2.3552-1.3824-3.4816-2.1504l-1.4848-1.024c-0.8192-0.5632-1.5872-1.1264-2.3552-1.7408-1.28-1.0752-2.56-2.1504-3.7376-3.328-2.8672-2.8672-6.8096-4.5056-10.8544-4.5056H512c-4.1984 0.1024-8.1408 1.8944-11.008 5.0176-1.0752 1.1776-2.2016 2.2528-3.4304 3.328-0.3584 0.3072-0.8192 0.6144-1.1776 0.9728-0.9216 0.7168-1.792 1.4336-2.7648 2.1504l-1.3824 0.9216c-1.024 0.6656-2.0992 1.3312-3.2256 1.9968-0.4096 0.2048-0.8192 0.4608-1.2288 0.6656-1.3312 0.7168-2.6624 1.3824-4.096 2.048l-0.6144 0.3072c-14.0288 6.2464-31.8976 8.96-49.2032 7.5264-0.256 0-0.5632-0.0512-0.8192-0.0512-1.5872-0.1536-3.1744-0.3584-4.7104-0.5632-0.6656-0.1024-1.28-0.1536-1.9456-0.256-0.6144-0.1024-1.28-0.256-1.8944-0.3584-1.3312-0.256-2.6624-0.4608-3.9936-0.768-0.1024 0-0.2048 0-0.3072-0.0512-4.2496-0.9216-8.3456-2.1504-12.288-3.6864-16.896-6.5024-37.12-20.7872-37.2224-51.712-0.0512-13.824 4.4032-24.6272 11.3152-33.024 0.6144-0.768 1.28-1.536 1.9456-2.2528s1.3824-1.4336 2.048-2.1504c1.28-1.28 2.6624-2.5088 4.0448-3.6352 0.0512-0.0512 0.1024-0.1024 0.1536-0.1024 22.7328-18.2272 57.856-21.0944 61.3888-21.3504h118.8864c0.5632 0 1.1776-0.0512 1.7408-0.1024 0.1024 0 0.4096-0.0512 0.7168-0.0512 3.2256-0.256 19.2-1.024 35.3792 5.0688 0.2048 0.0512 0.3584 0.1536 0.5632 0.256 1.28 0.512 2.6112 1.024 3.8912 1.6384 1.6896 0.768 3.328 1.6384 4.9664 2.6112 0.0512 0.0512 0.1024 0.0512 0.1536 0.1024 1.792 1.0752 3.5328 2.2016 5.2224 3.5328l0.1536 0.1536c1.5872 1.1776 3.1232 2.56 4.608 3.9424 0.256 0.256 0.5632 0.512 0.8192 0.8192 1.3312 1.3312 2.56 2.7136 3.7888 4.2496 0.3072 0.4096 0.6656 0.8192 0.9728 1.2288 1.0752 1.3824 2.048 2.9184 3.0208 4.4544 0.3584 0.6144 0.768 1.2288 1.1264 1.8432 0.9216 1.6384 1.792 3.4304 2.6112 5.2736 4.096 9.216 6.5024 20.1728 7.0144 32.8704 0.7168 24.32-22.784 37.1712-32.9216 41.5744z m187.904-358.144l75.8272-2.6624c-2.816 13.9776-9.6256 33.7408-26.1632 45.4656-20.0192 14.1824-50.4832 14.2336-90.4704 0.2048-3.8912-1.3824-8.1408-1.1264-11.8784 0.7168-3.6864 1.8432-6.5024 5.0688-7.7824 8.96-28.16 85.3504-56.4736 150.3744-86.1184 197.7856-0.1536-0.2048-0.3584-0.4096-0.5632-0.6144-2.8672-3.3792-5.9392-6.6048-9.3184-9.5232-11.8272-10.0864-25.1392-15.7696-37.4272-18.944-14.6432-3.9424-28.672-4.5568-38.7072-3.5328H450.3552c-0.1536 0-0.6656 0.0512-1.28 0.1024-19.7632 1.1776-47.9232 7.5776-70.7072 22.7328-0.5632 0.3584-1.0752 0.7168-1.6384 1.0752-1.6384 1.1264-3.2256 2.304-4.8128 3.5328l-2.6112 2.1504c-0.9216 0.768-1.8432 1.5872-2.7136 2.4064-0.6656 0.6144-1.3824 1.1264-1.9968 1.7408-29.9008-47.5136-58.4192-112.896-86.8352-198.912-1.28-3.9424-4.096-7.168-7.7824-8.96-2.1504-1.024-4.4544-1.5872-6.7584-1.5872-1.7408 0-3.4304 0.3072-5.0688 0.8704-39.936 14.0288-70.3488 13.9776-90.3168-0.1024-16.6912-11.7248-23.552-31.5904-26.3168-45.568l79.9232 2.816c2.4064 1.024 4.9152 1.9456 7.3728 2.9696 3.2256 1.3312 6.3488 2.56 9.3696 3.7376 1.8944 0.7168 3.84 1.4848 5.7344 2.2016 7.0144 2.6624 13.1584 4.864 18.2272 6.5536 0.9216 0.3072 1.8432 0.512 2.7648 0.6656 0.3072 0.0512 0.6144 0.0512 0.9216 0.0512 0.4096 0.0512 0.8704 0.1024 1.28 0.1024 0.1536 0 0.3072-0.0512 0.4608-0.0512 0.768 0 1.4848-0.1536 2.2528-0.256 0.3584-0.0512 0.7168-0.1024 1.0752-0.2048 1.0752-0.256 2.1504-0.6656 3.1744-1.1776 3.7376-1.8944 7.2192-4.096 10.5472-6.4-2.304 8.1408-3.328 16.7424-3.6352 24.32-0.3072 6.912 2.9184 13.3632 8.6016 17.2544 5.6832 3.8912 12.8 4.5568 19.0464 1.792 3.9424-1.7408 6.7072-1.9456 9.1136-1.3312 2.2016 34.0992 17.92 51.6096 57.4976 65.536 1.024 0.3584 2.1504 0.6656 3.328 0.8704 11.264 1.9456 21.504 2.816 30.8736 2.816 71.1168 0 90.2144-51.0464 95.232-75.2128a19.5584 19.5584 0 0 0-10.2912-21.6064 19.584 19.584 0 0 0-23.6544 4.1984c-5.7856 6.2976-12.7488 10.5984-20.6848 12.8-11.4176 3.1232-41.472-16.5376-63.3856-30.9248-14.9504-9.7792-30.3616-19.9168-45.0048-27.2384-11.8272-5.888-21.3504-6.4-28.6208-4.7616 30.1056-51.2 24.2688-125.2352 23.9104-129.28-0.1024-1.024-0.3072-1.9968-0.5632-2.9184 0-0.1024 0-0.1536-0.0512-0.256 45.5168-19.8656 98.2016-19.6096 99.0208-19.5584h149.3504c0.6656-0.0512 55.9616-0.256 102.144 21.0944-0.1024 0.5632-0.2048 1.1264-0.256 1.6896-0.3584 4.0448-6.1952 78.08 23.8592 129.28-7.2704-1.5872-16.7424-1.0752-28.4672 4.8128-14.6432 7.3216-30.1056 17.4592-45.0048 27.2384-21.9136 14.3872-51.968 34.048-63.3856 30.9248-7.936-2.2016-14.8992-6.5024-20.6848-12.8a19.584 19.584 0 0 0-23.6544-4.1984 19.5584 19.5584 0 0 0-10.2912 21.6064c5.0176 24.1664 24.1152 75.2128 95.2832 75.2128 9.3696 0 19.6608-0.8704 30.9248-2.816 1.024-0.2048 2.1504-0.4608 3.1744-0.8192 39.5776-13.8752 55.3472-31.4368 57.4976-65.536 2.4064-0.6144 5.1712-0.4096 9.1136 1.3312 6.2464 2.7648 13.4144 2.0992 19.0464-1.792a19.49184 19.49184 0 0 0 8.6016-17.2544c-0.3584-7.5776-1.3312-16.128-3.6352-24.2176 3.2768 2.304 6.7072 4.4544 10.3936 6.2976 1.024 0.512 2.0992 0.8704 3.1744 1.1776 0.3584 0.1024 0.7168 0.1024 1.0752 0.2048 0.768 0.1536 1.4848 0.256 2.2528 0.256 0.1536 0 0.3072 0.0512 0.4608 0.0512 0.4096 0 0.8704-0.0512 1.28-0.1024 0.3072-0.0512 0.6144-0.0512 0.9216-0.0512 0.9216-0.1536 1.8432-0.3584 2.7648-0.6656 5.0688-1.7408 11.264-3.9424 18.3296-6.6048 1.9456-0.7168 3.8912-1.4848 5.8368-2.2528 2.9696-1.1776 6.144-2.4064 9.3696-3.7376 2.3552-1.1776 4.9152-2.1504 7.3728-3.1744z m-409.344 76.4416c10.4448 0 19.4048-5.888 23.296-14.2336 15.1552 7.0656 29.2864 10.5984 41.8304 7.1168l2.6112-0.768c-15.104 17.9712-40.5504 24.064-76.1344 18.0224-32.9216-11.6736-36.1472-21.248-36.4544-43.4176a19.968 19.968 0 0 0-9.3184-16.64c-3.6352-2.2528-12.6464-7.8336-25.4464-7.2192 1.6896-7.424 4.0448-11.4688 5.6832-12.4416 0.9728-0.5632 4.096-0.1536 8.704 2.1504 13.056 6.5024 27.6992 16.128 41.8816 25.4464 1.4336 0.9216 2.8672 1.8432 4.2496 2.816-3.9424 4.1472-6.4512 9.5744-6.4512 15.5648 0.1536 13.056 11.52 23.6032 25.5488 23.6032z m169.8304-7.8848l2.6112 0.768c12.5952 3.4816 26.7264-0.0512 41.8304-7.1168 3.8912 8.3456 12.8512 14.2336 23.296 14.2336 14.0288 0 25.3952-10.5472 25.3952-23.6032 0-5.9904-2.4576-11.4176-6.4512-15.5648 1.4336-0.9216 2.816-1.8432 4.2496-2.816 14.1824-9.3184 28.8768-18.944 41.8816-25.4464 4.608-2.304 7.7312-2.7136 8.704-2.1504 1.6384 0.9728 4.0448 5.0176 5.6832 12.4416-12.9024-0.6144-21.8112 4.9664-25.4976 7.2704a19.8144 19.8144 0 0 0-9.3184 16.5888c-0.3072 22.1696-3.5328 31.744-36.4544 43.4176-35.3792 5.9904-60.8768-0.1024-75.9296-18.0224z m226.9184-96.6144c-3.6864 1.536-7.424 3.072-11.1616 4.5568-1.8432 0.7168-3.6352 1.4336-5.376 2.0992-4.864 1.8944-9.728 3.6864-14.6432 5.4272-0.2048 0.0512-0.4096 0.1536-0.6144 0.2048-38.8608-25.3952-41.728-94.6688-41.2672-122.4192 33.9456-6.8608 122.9312-31.6416 128.3072-103.9872 3.1232-42.0352-29.44-78.5408-65.5872-105.7792 105.0112 30.6688 173.9776 91.392 173.9776 158.208 0 80.1792-99.8912 134.8608-163.6352 161.6896z" fill="#333B44" /><path d="M414.7712 809.3184a25.3952 23.6032 0 1 0 50.7904 0 25.3952 23.6032 0 1 0-50.7904 0Z" fill="#333B44" /><path d="M581.9392 785.7152c-14.0288 0-25.3952 10.5472-25.3952 23.6032 0 13.056 11.3664 23.6032 25.3952 23.6032 14.0288 0 25.3952-10.5472 25.3952-23.6032 0-13.056-11.3664-23.6032-25.3952-23.6032z" fill="#333B44" /></svg>