<svg class="svg-icon" style="width: 1em;height: 1em;vertical-align: middle;fill: currentColor;overflow: hidden;" viewBox="0 0 1024 1024" version="1.1" xmlns="http://www.w3.org/2000/svg"><path d="M470.1184 93.2352S295.5264 20.6848 173.824 254.3104s23.3472 406.9376 68.864 448.768c45.4656 41.7792 41.7792 73.7792 24.576 81.152-17.2032 7.3728-31.9488-4.9152-28.2624-43.008-41.7792 4.9152-89.7536 22.1184-78.6944 113.1008s120.4736 127.8464 197.9392 88.5248c77.4656-39.3216 135.2192-135.2192 60.2624-215.1424s-104.0896-98.3552-120.2688-174.592c29.2864 20.8896 105.5232 54.1696 196.5056-32.5632-41.7792-49.8176-54.1184-116.224 7.3728-166.6048s81.152-81.152 81.152-81.152 161.0752 64.4096 162.304 182.8352-50.432 201.984-100.8128 245.0432c-50.432 43.008-102.4512 97.1264-104.4992 154.9312-1.8432 51.6608 19.8656 79.0016 65.1776 83.1488 29.8496 2.7136 58.112-11.0592 58.112-33.1776-24.576 0-51.968-42.5472-12.5952-110.1824 9.8304 51.6608 54.1184 113.1008 148.7872 89.7536 50.432-15.9744 72.5504-71.3216 40.5504-140.1344-18.432 25.8048-47.9744 49.2032-73.7792 18.432-25.8048-30.72 12.288-62.72 39.3216-82.3808 27.0336-19.6608 218.2144-229.632-17.8176-510.8224-48.0256-51.7632-180.1728-153.856-317.9008-77.0048z" fill="#E58339" /><path d="M644.7104 700.6208c50.432-43.008 102.0416-126.6176 100.8128-245.0432-1.2288-118.4256-162.304-182.8352-162.304-182.8352s-19.6608 30.72-81.152 81.152-49.2032 116.7872-7.3728 166.6048c-90.9824 86.7328-167.2192 53.4528-196.5056 32.5632 16.1792 76.2368 45.2608 94.6688 120.2688 174.592 5.2224 5.5808 9.728 11.2128 13.7216 16.896h0.0512s45.7728 38.8096 73.216 38.8096c27.4432 0 62.5664-10.2912 94.72-41.1136 14.08-14.7456 29.3888-28.672 44.544-41.6256z" fill="#FFE0C2" /><path d="M814.7968 693.3504c16.896-12.288 88.2176-87.1936 102.5024-204.0832 13.4144-109.4144-26.1632-220.1088-117.6064-329.0112-0.1536-0.2048-0.3584-0.4096-0.512-0.5632-16.5376-17.8176-164.8128-169.7792-330.3936-83.1488-15.616-4.9664-54.8864-14.6432-104.0384-5.4272-57.0368 10.7008-138.8544 49.9712-204.5952 176.128-54.0672 103.7312-63.8976 207.5136-29.184 308.3776 31.4368 91.4432 89.856 148.2752 101.2736 158.7712 4.7104 4.352 8.8064 8.4992 12.3392 12.4928-2.3552-0.9216-4.864-1.28-7.424-0.9728-21.8624 2.56-53.3504 9.0112-73.8304 35.0208-17.408 22.1696-23.3984 53.2992-18.3296 95.1808 5.1712 42.6496 29.7984 77.7728 69.2736 98.816 23.6544 12.6464 50.3296 18.944 77.0048 18.944 25.4976 0 51.0464-5.7856 73.8816-17.408 53.9136-27.392 92.8768-75.5712 101.6832-125.7984 2.6112-14.9504 2.5088-29.696-0.1536-43.9808 12.9024 6.8096 26.6752 12.032 38.7584 12.032 9.2672 0 22.3232-1.1264 37.4784-5.4272-10.4448 19.5584-17.3056 40.2432-18.0736 61.6448-2.7136 75.5712 41.5232 95.5392 79.104 98.9696 23.7056 2.2016 46.2848-4.2496 60.416-17.152 9.4208-8.6016 14.4384-19.456 14.4384-31.3344 0-8.4992-6.8608-15.36-15.36-15.36-2.9696 0-7.8848-2.4064-11.8272-9.2672-2.7136-4.7104-8.7552-18.8928-2.4064-43.2128 10.3936 20.3264 25.3952 37.3248 43.6224 49.0496 30.2592 19.4048 67.4304 23.9104 110.4896 13.2608 0.3072-0.1024 0.6656-0.1536 0.9728-0.256 26.4192-8.3968 46.848-26.4192 57.6-50.7904 13.6704-31.0784 10.9056-70.2976-7.7312-110.4896a15.232 15.232 0 0 0-12.4928-8.8064c-5.4784-0.512-10.752 1.9456-13.9264 6.3488-11.6224 16.2816-24.2688 26.2656-33.792 26.624-1.9456 0.0512-7.7824 0.3072-15.7184-9.1136-5.12-6.0928-5.2224-10.7008-4.864-13.6704 2.1504-17.8176 31.6928-39.3216 41.4208-46.3872z m-225.4848 38.0416c-33.3312 31.8464-66.816 36.608-83.8656 36.608-14.592 0-44.4416-19.5072-61.952-34.048l-0.1536-0.1536c-1.8944-2.6112-3.84-5.1712-5.9392-7.68-0.3072-0.4096-0.6656-0.8192-0.9728-1.1776-2.1504-2.6112-4.4032-5.2224-6.8096-7.7312a3307.8784 3307.8784 0 0 0-33.4848-35.072c-39.168-40.6528-60.2624-62.464-73.5744-98.9696 40.1408 15.1552 106.8544 20.8384 182.784-51.5072a15.32928 15.32928 0 0 0 1.1776-20.992c-22.528-26.88-33.5872-56.2688-31.1296-82.7392 2.1504-23.1424 14.4384-44.032 36.4544-62.1056 42.1888-34.6112 65.4336-60.416 76.3392-73.984 34.5088 16.3328 141.056 73.9328 141.9776 163.9424 1.1264 109.0048-43.8784 178.176-74.4448 212.48-0.1536 0.1536-0.256 0.3072-0.4096 0.4608-3.5328 3.9424-6.8608 7.424-9.8816 10.3936-2.048 2.048-3.9424 3.84-5.7344 5.4784l-0.1536 0.1536c-1.792 1.6384-3.4304 3.072-4.8128 4.3008-11.1616 9.5232-23.2448 20.3264-35.2256 32.1024-0.1024 0.1024-0.256 0.2048-0.3584 0.3584-2.9696 2.9184-5.888 5.888-8.8064 8.9088-0.3072 0.256-0.6656 0.6144-1.024 0.9728z m165.376 41.7792c14.5408 17.3056 29.952 20.48 40.448 20.0704 15.3088-0.6144 28.8256-8.7552 39.8336-18.944 6.7584 23.3472 6.4 44.9024-1.1776 62.208-7.168 16.2816-20.3776 27.9552-38.2976 33.7408-34.304 8.3456-63.232 5.1712-86.016-9.4208-31.2832-20.0704-40.8064-54.528-43.4688-68.4032a15.43168 15.43168 0 0 0-12.4928-12.288c-6.3488-1.0752-12.6464 1.8944-15.872 7.424-34.048 58.5216-20.1216 95.4368-12.5952 108.5952 4.6592 8.0896 10.8032 14.4896 17.8176 18.7392-7.8336 6.5024-21.8112 9.7792-36.0448 8.4992-24.8832-2.2528-53.1968-11.9808-51.2-67.328 1.28-36.352 26.2656-72.192 55.0912-102.6048l0.1536-0.1536c0.1536-0.1536 0.3072-0.3072 0.4608-0.512 12.1344-12.6976 26.3168-26.0096 43.3664-40.5504 30.976-26.4704 56.064-61.0304 74.0864-100.6592 21.248-46.6944 32.7168-100.4032 32.1536-156.2624-1.3312-127.232-164.9664-194.1504-171.9296-196.9152a15.39584 15.39584 0 0 0-18.5856 5.9392c-0.2048 0.3072-19.7632 29.8496-77.9776 77.6192-28.6208 23.4496-44.6464 51.4048-47.5648 83.0464-2.8672 30.72 7.424 63.5392 29.0816 93.6448-82.7904 71.2192-148.1216 35.1232-166.7072 21.8624a15.44704 15.44704 0 0 0-17.3568-0.3584 15.27808 15.27808 0 0 0-6.6048 16.0256c14.4384 68.0448 39.9872 94.464 90.88 147.1488 2.4576 2.56 5.0176 5.1712 7.6288 7.8848 7.8336 8.1408 16.4352 17.1008 25.6 26.88a160.87552 160.87552 0 0 1 6.6048 7.5776c1.9456 2.4576 3.84 4.9664 5.6832 7.5776 0.1536 0.2048 0.3072 0.3584 0.4608 0.5632 15.4112 22.272 20.992 46.2848 16.5888 71.5264-7.0656 40.2432-40.5504 80.9472-85.2992 103.7312-37.376 18.9952-85.504 18.4832-122.5216-1.28-30.3616-16.1792-49.3056-43.008-53.248-75.4176-3.9936-32.9216 0-57.2928 11.9808-72.4992 7.8336-9.984 19.2-16.5376 35.7888-20.5312 1.4848 20.5824 9.3184 30.976 16.4864 36.2496 9.3184 6.8096 21.5552 7.7824 33.536 2.6624 10.9056-4.7104 18.432-14.5408 20.5824-27.0848 2.304-13.568 0.1024-41.8816-40.8064-79.4624-20.0704-18.432-192.3584-187.136-65.6384-430.336 113.3568-217.5488 270.2336-156.672 276.8384-153.9584 4.352 1.792 9.2672 1.4848 13.312-0.768 146.7392-81.8688 282.5216 56.1152 298.8032 73.6256 85.5552 102.0416 122.7264 204.7488 110.3872 305.2544-13.056 106.5472-77.8752 174.08-90.112 182.9888-23.3472 16.9472-50.5344 39.9872-53.9136 67.5328-1.6896 13.1584 2.4064 26.0096 11.776 37.12z m-500.48-33.9968c7.936 11.8784 10.3424 21.248 9.3696 26.88-0.3584 2.1504-1.1776 3.4816-2.4064 4.0448-1.9456 0.8192-3.072 0.8192-3.2768 0.768-1.2288-0.6656-5.632-7.8848-3.6864-28.2112 0.2048-1.1776 0.1536-2.304 0-3.4816z" fill="#333B44" /><path d="M426.2912 622.6944s26.6752-9.3184 38.656-25.344c11.9808-15.9744 37.9904-23.3472 61.3376 4.6592 22.6816-28.0064 45.312-10.1888 58.0096 0.9216 12.6464 11.1104 19.3536 17.1008 36.6592 19.7632-19.3536 17.3568-30.0032 28.0064-43.3152 42.6496-13.312 14.6432-23.3472 24.0128-54.016 24.0128s-54.016-18.0224-66.6624-37.9904c-12.6976-20.0192-30.6688-28.672-30.6688-28.672z" fill="#FF647E" /><path d="M523.6224 704.7168c-31.9488 0-61.7472-16.896-79.616-45.1584-10.0352-15.8208-24.2176-22.9888-24.3712-23.04a15.37024 15.37024 0 0 1-8.6528-14.6944c0.3584-6.1952 4.4032-11.5712 10.24-13.6192 6.2464-2.2016 24.0128-10.0864 31.488-20.0704 9.3696-12.544 23.3984-19.9168 38.4512-20.3264 9.1648-0.256 21.9648 2.0992 35.2768 12.8 7.0144-5.12 14.5408-8.0896 22.528-8.7552 21.0944-1.7408 38.144 13.1584 45.4144 19.5584l0.512 0.4096c11.7248 10.2912 15.7184 13.7216 28.416 15.7184 5.888 0.9216 10.7008 5.12 12.3904 10.8032 1.6896 5.6832-0.0512 11.8272-4.4544 15.8208-17.92 16.0768-28.5696 26.5728-42.24 41.5744-15.4624 16.9472-29.2352 28.9792-65.3824 28.9792z m-68.0448-79.2576c4.864 4.7616 9.8304 10.6496 14.336 17.7152 4.608 7.2192 22.016 30.8736 53.7088 30.8736 25.3952 0 31.5392-6.7584 42.6496-18.9952 8.96-9.8304 16.64-17.8176 25.7024-26.4704-6.0416-3.7376-11.264-8.3456-17.3056-13.6192l-0.512-0.4096c-4.352-3.7888-14.4384-12.7488-22.5792-12.032-4.1984 0.3584-8.704 3.4816-13.3632 9.216-2.9184 3.584-7.2192 5.6832-11.8272 5.6832h-0.1024c-4.5568 0-8.8576-2.048-11.776-5.5296-7.424-8.9088-15.2064-13.5168-22.5792-13.312-5.5296 0.1536-11.008 3.1232-14.6944 8.0384-5.7856 7.7312-13.8752 14.0288-21.6576 18.8416z" fill="#333B44" /></svg>